<?xml version="1.0" encoding="utf-8" ?>
<!DOCTYPE svg PUBLIC "-//W3C//DTD SVG 1.1//EN" "http://www.w3.org/Graphics/SVG/1.1/DTD/svg11.dtd">
<svg height="417" version="1.1" width="1223" xmlns="http://www.w3.org/2000/svg">
<rect fill="#ffffff" height="67" stroke="#ffffff" stroke-width="1" width="103" x="526" y="54"/>
<rect fill="none" height="67" stroke="#000000" stroke-width="1" width="103" x="526" y="54"/>
<text font-family="Dialog" font-size="12" x="531" y="67">
ScoringResults</text>
<rect fill="#000000" height="1" stroke="#000000" stroke-width="1" width="103" x="526" y="77"/>
<rect fill="#000000" height="1" stroke="#000000" stroke-width="1" width="103" x="526" y="98"/>
<rect fill="#ffffff" height="67" stroke="#ffffff" stroke-width="1" width="109" x="318" y="222"/>
<rect fill="none" height="67" stroke="#000000" stroke-width="1" width="109" x="318" y="222"/>
<text font-family="Dialog" font-size="12" x="323" y="235">
ScoringRequest</text>
<rect fill="#000000" height="1" stroke="#000000" stroke-width="1" width="109" x="318" y="245"/>
<rect fill="#000000" height="1" stroke="#000000" stroke-width="1" width="109" x="318" y="266"/>
<rect fill="#ffffff" height="152" stroke="#ffffff" stroke-width="1" width="264" x="510" y="222"/>
<rect fill="none" height="152" stroke="#000000" stroke-width="1" width="264" x="510" y="222"/>
<text font-family="Dialog" font-size="12" x="596" y="235">
ScoringSystem</text>
<rect fill="#000000" height="1" stroke="#000000" stroke-width="1" width="264" x="510" y="245"/>
<text font-family="Dialog" font-size="12" x="514" y="259">
context_map : Map&lt;str_ScoringContext&gt;</text>
<text font-family="Dialog" font-size="12" x="514" y="275">
score_cache : ScoreCache</text>
<text font-family="Dialog" font-size="12" x="514" y="291">
metrics_collector : MetricsCollector</text>
<text font-family="Dialog" font-size="12" x="514" y="307">
timeout : int</text>
<rect fill="#000000" height="1" stroke="#000000" stroke-width="1" width="264" x="510" y="317"/>
<text font-family="Dialog" font-size="12" x="514" y="331">
score()</text>
<text font-family="Dialog" font-size="12" x="514" y="347">
format_model_info()</text>
<line fill="#000000" stroke="#000000" stroke-width="1" x1="514" x2="596" y1="364" y2="364"/>
<text font-family="Dialog" font-size="12" x="514" y="363">
from_config()</text>
<rect fill="#ffffff" height="117" stroke="#ffffff" stroke-width="1" width="125" x="838" y="110"/>
<rect fill="none" height="117" stroke="#000000" stroke-width="1" width="125" x="838" y="110"/>
<text font-family="Dialog" font-size="12" x="863" y="123">
ScoreCache</text>
<rect fill="#000000" height="1" stroke="#000000" stroke-width="1" width="125" x="838" y="133"/>
<rect fill="#000000" height="1" stroke="#000000" stroke-width="1" width="125" x="838" y="154"/>
<line fill="#000000" stroke="#000000" stroke-width="1" x1="842" x2="924" y1="169" y2="169"/>
<text font-family="Dialog" font-size="12" x="842" y="168">
from_config()</text>
<text font-family="Dialog" font-size="12" x="842" y="184">
store()</text>
<text font-family="Dialog" font-size="12" x="842" y="200">
lookup()</text>
<text font-family="Dialog" font-size="12" x="842" y="216">
context() : Context</text>
<rect fill="#ffffff" height="136" stroke="#ffffff" stroke-width="1" width="179" x="1030" y="190"/>
<rect fill="none" height="136" stroke="#000000" stroke-width="1" width="179" x="1030" y="190"/>
<text font-family="Dialog" font-size="12" x="1095" y="203">
Context</text>
<rect fill="#000000" height="1" stroke="#000000" stroke-width="1" width="179" x="1030" y="213"/>
<text font-family="Dialog" font-size="12" x="1034" y="227">
score_cache : ScoreCache</text>
<text font-family="Dialog" font-size="12" x="1034" y="243">
context : str</text>
<text font-family="Dialog" font-size="12" x="1034" y="259">
model : str</text>
<text font-family="Dialog" font-size="12" x="1034" y="275">
version : str</text>
<rect fill="#000000" height="1" stroke="#000000" stroke-width="1" width="179" x="1030" y="285"/>
<text font-family="Dialog" font-size="12" x="1034" y="299">
store()</text>
<text font-family="Dialog" font-size="12" x="1034" y="315">
lookup()</text>
<rect fill="#ffffff" height="85" stroke="#ffffff" stroke-width="1" width="142" x="14" y="62"/>
<rect fill="none" height="85" stroke="#000000" stroke-width="1" width="142" x="14" y="62"/>
<text font-family="Dialog" font-size="12" x="46" y="75">
ScorerModel</text>
<rect fill="#000000" height="1" stroke="#000000" stroke-width="1" width="142" x="14" y="85"/>
<text font-family="Dialog" font-size="12" x="18" y="99">
version : str</text>
<text font-family="Dialog" font-size="12" x="18" y="115">
features : Array&lt;str&gt;</text>
<rect fill="#000000" height="1" stroke="#000000" stroke-width="1" width="142" x="14" y="125"/>
<rect fill="#ffffff" height="85" stroke="#ffffff" stroke-width="1" width="105" x="78" y="214"/>
<rect fill="none" height="85" stroke="#000000" stroke-width="1" width="105" x="78" y="214"/>
<text font-family="Dialog" font-size="12" x="102" y="227">
Extractor</text>
<rect fill="#000000" height="1" stroke="#000000" stroke-width="1" width="105" x="78" y="237"/>
<rect fill="#000000" height="1" stroke="#000000" stroke-width="1" width="105" x="78" y="258"/>
<text font-family="Dialog" font-size="12" x="82" y="272">
solve()</text>
<line fill="#000000" stroke="#000000" stroke-width="1" x1="82" x2="164" y1="289" y2="289"/>
<text font-family="Dialog" font-size="12" x="82" y="288">
from_config()</text>
<polyline fill="none" points="773,222 838,222" stroke="#000000" stroke-width="1"/>
<line fill="#000000" stroke="#000000" stroke-width="1" x1="826" x2="838" y1="229" y2="222"/>
<line fill="#000000" stroke="#000000" stroke-width="1" x1="826" x2="838" y1="215" y2="222"/>
<rect fill="#ffffff" height="168" stroke="#ffffff" stroke-width="1" width="228" x="246" y="14"/>
<rect fill="none" height="168" stroke="#000000" stroke-width="1" width="228" x="246" y="14"/>
<text font-family="Dialog" font-size="12" x="312" y="27">
ScoringContext</text>
<rect fill="#000000" height="1" stroke="#000000" stroke-width="1" width="228" x="246" y="37"/>
<text font-family="Dialog" font-size="12" x="250" y="51">
name : str</text>
<text font-family="Dialog" font-size="12" x="250" y="67">
model_map : dict&lt;ScorerModel&gt;</text>
<text font-family="Dialog" font-size="12" x="250" y="83">
extractor : Extractor</text>
<rect fill="#000000" height="1" stroke="#000000" stroke-width="1" width="228" x="246" y="93"/>
<text font-family="Dialog" font-size="12" x="250" y="107">
format_model_info()</text>
<text font-family="Dialog" font-size="12" x="250" y="123">
format_id_string()</text>
<text font-family="Dialog" font-size="12" x="250" y="139">
process_model_scores()</text>
<text font-family="Dialog" font-size="12" x="250" y="155">
extract_root_dependency_caches()</text>
<line fill="#000000" stroke="#000000" stroke-width="1" x1="250" x2="332" y1="172" y2="172"/>
<text font-family="Dialog" font-size="12" x="250" y="171">
from_config()</text>
<polyline fill="none" points="246,181 182,214" stroke="#000000" stroke-width="1"/>
<line fill="#000000" stroke="#000000" stroke-width="1" x1="189" x2="182" y1="202" y2="214"/>
<line fill="#000000" stroke="#000000" stroke-width="1" x1="195" x2="182" y1="214" y2="214"/>
<polyline fill="none" points="246,62 155,62" stroke="#000000" stroke-width="1"/>
<line fill="#000000" stroke="#000000" stroke-width="1" x1="167" x2="155" y1="55" y2="62"/>
<line fill="#000000" stroke="#000000" stroke-width="1" x1="167" x2="155" y1="69" y2="62"/>
<polyline fill="none" points="510,222 473,181" stroke="#000000" stroke-width="1"/>
<line fill="#000000" stroke="#000000" stroke-width="1" x1="486" x2="473" y1="185" y2="181"/>
<line fill="#000000" stroke="#000000" stroke-width="1" x1="475" x2="473" y1="194" y2="181"/>
<rect fill="#ffffff" height="69" stroke="#ffffff" stroke-width="1" width="110" x="838" y="334"/>
<rect fill="none" height="69" stroke="#000000" stroke-width="1" width="110" x="838" y="334"/>
<text font-family="Dialog" font-size="12" x="843" y="347">
MetricsCollector</text>
<rect fill="#000000" height="1" stroke="#000000" stroke-width="1" width="110" x="838" y="357"/>
<rect fill="#000000" height="1" stroke="#000000" stroke-width="1" width="110" x="838" y="379"/>
</svg>
