<?xml version="1.0" encoding="utf-8" ?>
<!DOCTYPE svg PUBLIC "-//W3C//DTD SVG 1.1//EN" "http://www.w3.org/Graphics/SVG/1.1/DTD/svg11.dtd">
<svg height="1103" version="1.1" width="1876" xmlns="http://www.w3.org/2000/svg">
<rect fill="#ffffff" height="67" stroke="#ffffff" stroke-width="1" width="103" x="529" y="246"/>
<rect fill="none" height="67" stroke="#000000" stroke-width="1" width="103" x="529" y="246"/>
<text font-family="Dialog" font-size="12" x="534" y="259">
ScoringResults</text>
<rect fill="#000000" height="1" stroke="#000000" stroke-width="1" width="103" x="529" y="269"/>
<rect fill="#000000" height="1" stroke="#000000" stroke-width="1" width="103" x="529" y="290"/>
<rect fill="#ffffff" height="67" stroke="#ffffff" stroke-width="1" width="109" x="329" y="366"/>
<rect fill="none" height="67" stroke="#000000" stroke-width="1" width="109" x="329" y="366"/>
<text font-family="Dialog" font-size="12" x="334" y="379">
ScoringRequest</text>
<rect fill="#000000" height="1" stroke="#000000" stroke-width="1" width="109" x="329" y="389"/>
<rect fill="#000000" height="1" stroke="#000000" stroke-width="1" width="109" x="329" y="410"/>
<rect fill="#ffffff" height="152" stroke="#ffffff" stroke-width="1" width="264" x="521" y="366"/>
<rect fill="none" height="152" stroke="#000000" stroke-width="1" width="264" x="521" y="366"/>
<text font-family="Dialog" font-size="12" x="607" y="379">
ScoringSystem</text>
<rect fill="#000000" height="1" stroke="#000000" stroke-width="1" width="264" x="521" y="389"/>
<text font-family="Dialog" font-size="12" x="525" y="403">
context_map : Map&lt;str_ScoringContext&gt;</text>
<text font-family="Dialog" font-size="12" x="525" y="419">
score_cache : ScoreCache</text>
<text font-family="Dialog" font-size="12" x="525" y="435">
metrics_collector : MetricsCollector</text>
<text font-family="Dialog" font-size="12" x="525" y="451">
timeout : int</text>
<rect fill="#000000" height="1" stroke="#000000" stroke-width="1" width="264" x="521" y="461"/>
<text font-family="Dialog" font-size="12" x="525" y="475">
score()</text>
<text font-family="Dialog" font-size="12" x="525" y="491">
format_model_info()</text>
<line fill="#000000" stroke="#000000" stroke-width="1" x1="525" x2="607" y1="508" y2="508"/>
<text font-family="Dialog" font-size="12" x="525" y="507">
from_config()</text>
<rect fill="#ffffff" height="117" stroke="#ffffff" stroke-width="1" width="125" x="849" y="254"/>
<rect fill="none" height="117" stroke="#000000" stroke-width="1" width="125" x="849" y="254"/>
<text font-family="Dialog" font-size="12" x="874" y="267">
ScoreCache</text>
<rect fill="#000000" height="1" stroke="#000000" stroke-width="1" width="125" x="849" y="277"/>
<rect fill="#000000" height="1" stroke="#000000" stroke-width="1" width="125" x="849" y="298"/>
<line fill="#000000" stroke="#000000" stroke-width="1" x1="853" x2="935" y1="313" y2="313"/>
<text font-family="Dialog" font-size="12" x="853" y="312">
from_config()</text>
<text font-family="Dialog" font-size="12" x="853" y="328">
store()</text>
<text font-family="Dialog" font-size="12" x="853" y="344">
lookup()</text>
<text font-family="Dialog" font-size="12" x="853" y="360">
context() : score_cache.Context</text>
<rect fill="#ffffff" height="136" stroke="#ffffff" stroke-width="1" width="179" x="849" y="510"/>
<rect fill="none" height="136" stroke="#000000" stroke-width="1" width="179" x="849" y="510"/>
<text font-family="Dialog" font-size="12" x="873" y="523">
score_cache.Context</text>
<rect fill="#000000" height="1" stroke="#000000" stroke-width="1" width="179" x="849" y="533"/>
<text font-family="Dialog" font-size="12" x="853" y="547">
score_cache : ScoreCache</text>
<text font-family="Dialog" font-size="12" x="853" y="563">
context : str</text>
<text font-family="Dialog" font-size="12" x="853" y="579">
model : str</text>
<text font-family="Dialog" font-size="12" x="853" y="595">
version : str</text>
<rect fill="#000000" height="1" stroke="#000000" stroke-width="1" width="179" x="849" y="605"/>
<text font-family="Dialog" font-size="12" x="853" y="619">
store()</text>
<text font-family="Dialog" font-size="12" x="853" y="635">
lookup()</text>
<rect fill="#ffffff" height="152" stroke="#ffffff" stroke-width="1" width="174" x="337" y="470"/>
<rect fill="none" height="152" stroke="#000000" stroke-width="1" width="174" x="337" y="470"/>
<text font-family="Dialog" font-size="12" x="385" y="483">
ScorerModel</text>
<rect fill="#000000" height="1" stroke="#000000" stroke-width="1" width="174" x="337" y="493"/>
<text font-family="Dialog" font-size="12" x="341" y="507">
version : str</text>
<text font-family="Dialog" font-size="12" x="341" y="523">
features : Array&lt;Feature&gt;</text>
<rect fill="#000000" height="1" stroke="#000000" stroke-width="1" width="174" x="337" y="533"/>
<line fill="#000000" stroke="#000000" stroke-width="1" x1="341" x2="386" y1="548" y2="548"/>
<text font-family="Dialog" font-size="12" x="341" y="547">
score()</text>
<text font-family="Dialog" font-size="12" x="341" y="563">
info()</text>
<text font-family="Dialog" font-size="12" x="341" y="579">
load()</text>
<text font-family="Dialog" font-size="12" x="341" y="595">
dump()</text>
<line fill="#000000" stroke="#000000" stroke-width="1" x1="341" x2="423" y1="612" y2="612"/>
<text font-family="Dialog" font-size="12" x="341" y="611">
from_config()</text>
<rect fill="#ffffff" height="85" stroke="#ffffff" stroke-width="1" width="105" x="89" y="358"/>
<rect fill="none" height="85" stroke="#000000" stroke-width="1" width="105" x="89" y="358"/>
<text font-family="Dialog" font-size="12" x="113" y="371">
Extractor</text>
<rect fill="#000000" height="1" stroke="#000000" stroke-width="1" width="105" x="89" y="381"/>
<rect fill="#000000" height="1" stroke="#000000" stroke-width="1" width="105" x="89" y="402"/>
<text font-family="Dialog" font-size="12" x="93" y="416">
extract()</text>
<line fill="#000000" stroke="#000000" stroke-width="1" x1="93" x2="175" y1="433" y2="433"/>
<text font-family="Dialog" font-size="12" x="93" y="432">
from_config()</text>
<polyline fill="none" points="784,366 849,366" stroke="#000000" stroke-width="1"/>
<line fill="#000000" stroke="#000000" stroke-width="1" x1="837" x2="849" y1="373" y2="366"/>
<line fill="#000000" stroke="#000000" stroke-width="1" x1="837" x2="849" y1="359" y2="366"/>
<rect fill="#ffffff" height="168" stroke="#ffffff" stroke-width="1" width="228" x="257" y="158"/>
<rect fill="none" height="168" stroke="#000000" stroke-width="1" width="228" x="257" y="158"/>
<text font-family="Dialog" font-size="12" x="323" y="171">
ScoringContext</text>
<rect fill="#000000" height="1" stroke="#000000" stroke-width="1" width="228" x="257" y="181"/>
<text font-family="Dialog" font-size="12" x="261" y="195">
name : str</text>
<text font-family="Dialog" font-size="12" x="261" y="211">
model_map : dict&lt;ScorerModel&gt;</text>
<text font-family="Dialog" font-size="12" x="261" y="227">
extractor : Extractor</text>
<rect fill="#000000" height="1" stroke="#000000" stroke-width="1" width="228" x="257" y="237"/>
<text font-family="Dialog" font-size="12" x="261" y="251">
format_model_info()</text>
<text font-family="Dialog" font-size="12" x="261" y="267">
format_id_string()</text>
<text font-family="Dialog" font-size="12" x="261" y="283">
process_model_scores()</text>
<text font-family="Dialog" font-size="12" x="261" y="299">
extract_root_dependency_caches()</text>
<line fill="#000000" stroke="#000000" stroke-width="1" x1="261" x2="343" y1="316" y2="316"/>
<text font-family="Dialog" font-size="12" x="261" y="315">
from_config()</text>
<polyline fill="none" points="257,325 193,358" stroke="#000000" stroke-width="1"/>
<line fill="#000000" stroke="#000000" stroke-width="1" x1="200" x2="193" y1="346" y2="358"/>
<line fill="#000000" stroke="#000000" stroke-width="1" x1="206" x2="193" y1="358" y2="358"/>
<polyline fill="none" points="345,325 345,470" stroke="#000000" stroke-width="1"/>
<line fill="#000000" stroke="#000000" stroke-width="1" x1="338" x2="345" y1="458" y2="470"/>
<line fill="#000000" stroke="#000000" stroke-width="1" x1="352" x2="345" y1="458" y2="470"/>
<polyline fill="none" points="521,366 484,325" stroke="#000000" stroke-width="1"/>
<line fill="#000000" stroke="#000000" stroke-width="1" x1="497" x2="484" y1="329" y2="325"/>
<line fill="#000000" stroke="#000000" stroke-width="1" x1="486" x2="484" y1="338" y2="325"/>
<rect fill="#ffffff" height="69" stroke="#ffffff" stroke-width="1" width="110" x="625" y="574"/>
<rect fill="none" height="69" stroke="#000000" stroke-width="1" width="110" x="625" y="574"/>
<text font-family="Dialog" font-size="12" x="630" y="587">
MetricsCollector</text>
<rect fill="#000000" height="1" stroke="#000000" stroke-width="1" width="110" x="625" y="597"/>
<rect fill="#000000" height="1" stroke="#000000" stroke-width="1" width="110" x="625" y="619"/>
<rect fill="#ffffff" height="120" stroke="#ffffff" stroke-width="1" width="166" x="1657" y="198"/>
<rect fill="none" height="120" stroke="#000000" stroke-width="1" width="166" x="1657" y="198"/>
<text font-family="Dialog" font-size="12" x="1703" y="211">
Datasource</text>
<rect fill="#000000" height="1" stroke="#000000" stroke-width="1" width="166" x="1657" y="221"/>
<text font-family="Dialog" font-size="12" x="1661" y="235">
name : str</text>
<text font-family="Dialog" font-size="12" x="1661" y="251">
process : function</text>
<text font-family="Dialog" font-size="12" x="1661" y="267">
depends_on : Array&lt;str&gt;</text>
<rect fill="#000000" height="1" stroke="#000000" stroke-width="1" width="166" x="1657" y="277"/>
<text font-family="Dialog" font-size="12" x="1661" y="291">
__hash__()</text>
<text font-family="Dialog" font-size="12" x="1661" y="307">
__str__()</text>
<rect fill="#ffffff" height="232" stroke="#ffffff" stroke-width="1" width="235" x="1041" y="94"/>
<rect fill="none" height="232" stroke="#000000" stroke-width="1" width="235" x="1041" y="94"/>
<text font-family="Dialog" font-size="12" x="1123" y="107">
Dependent</text>
<rect fill="#000000" height="1" stroke="#000000" stroke-width="1" width="235" x="1041" y="117"/>
<text font-family="Dialog" font-size="12" x="1045" y="131">
name : str</text>
<text font-family="Dialog" font-size="12" x="1045" y="147">
process : function</text>
<text font-family="Dialog" font-size="12" x="1045" y="163">
depends_on : iterable&lt;Dependent&gt;</text>
<text font-family="Dialog" font-size="12" x="1045" y="179">
calls : int</text>
<rect fill="#000000" height="1" stroke="#000000" stroke-width="1" width="235" x="1041" y="189"/>
<text font-family="Dialog" font-size="12" x="1045" y="203">
__call__()</text>
<text font-family="Dialog" font-size="12" x="1045" y="219">
__hash__()</text>
<text font-family="Dialog" font-size="12" x="1045" y="235">
__eq__()</text>
<text font-family="Dialog" font-size="12" x="1045" y="251">
__str__()</text>
<text font-family="Dialog" font-size="12" x="1045" y="267">
__ne__()</text>
<text font-family="Dialog" font-size="12" x="1045" y="283">
__repr__()</text>
<line fill="#000000" stroke="#000000" stroke-width="1" x1="1045" x2="1082" y1="300" y2="300"/>
<text font-family="Dialog" font-size="12" x="1045" y="299">
load()</text>
<text font-family="Dialog" font-size="12" x="1045" y="315">
dump()</text>
<rect fill="#ffffff" height="120" stroke="#ffffff" stroke-width="1" width="253" x="1337" y="158"/>
<rect fill="none" height="120" stroke="#000000" stroke-width="1" width="253" x="1337" y="158"/>
<text font-family="Dialog" font-size="12" x="1418" y="190">
DependentSet</text>
<text font-family="Dialog" font-size="12" x="1433" y="172">
&lt;&lt;set&gt;&gt;</text>
<rect fill="#000000" height="1" stroke="#000000" stroke-width="1" width="253" x="1337" y="200"/>
<text font-family="Dialog" font-size="12" x="1341" y="214">
name : str</text>
<text font-family="Dialog" font-size="12" x="1341" y="230">
dependents : set&lt;Dependent&gt;</text>
<text font-family="Dialog" font-size="12" x="1341" y="246">
dependent_sets : set&lt;DependentSet&gt;</text>
<rect fill="#000000" height="1" stroke="#000000" stroke-width="1" width="253" x="1337" y="256"/>
<polyline fill="none" points="1337,238 1275,238" stroke="#000000" stroke-width="1"/>
<line fill="#000000" stroke="#000000" stroke-width="1" x1="1287" x2="1275" y1="231" y2="238"/>
<line fill="#000000" stroke="#000000" stroke-width="1" x1="1287" x2="1275" y1="245" y2="238"/>
<rect fill="#ffffff" height="88" stroke="#ffffff" stroke-width="1" width="119" x="1105" y="398"/>
<rect fill="none" height="88" stroke="#000000" stroke-width="1" width="119" x="1105" y="398"/>
<text font-family="Dialog" font-size="12" x="1140" y="411">
Feature</text>
<rect fill="#000000" height="1" stroke="#000000" stroke-width="1" width="119" x="1105" y="421"/>
<text font-family="Dialog" font-size="12" x="1109" y="435">
return_type : type</text>
<rect fill="#000000" height="1" stroke="#000000" stroke-width="1" width="119" x="1105" y="445"/>
<text font-family="Dialog" font-size="12" x="1109" y="459">
validate()</text>
<line fill="#000000" stroke="#000000" stroke-width="1" x1="1109" x2="1194" y1="476" y2="476"/>
<text font-family="Dialog" font-size="12" x="1109" y="475">
or_constant()</text>
<polyline fill="none" points="1154,398 1154,325" stroke="#000000" stroke-width="1"/>
<polygon fill="#ffffff" points="1154,325 1161,337 1147,337" stroke="#ffffff" stroke-width="1"/>
<polygon fill="none" points="1154,325 1161,337 1147,337" stroke="#000000" stroke-width="1"/>
<rect fill="#ffffff" height="69" stroke="#ffffff" stroke-width="1" width="113" x="1105" y="558"/>
<rect fill="none" height="69" stroke="#000000" stroke-width="1" width="113" x="1105" y="558"/>
<text font-family="Dialog" font-size="12" x="1133" y="571">
Constant</text>
<rect fill="#000000" height="1" stroke="#000000" stroke-width="1" width="113" x="1105" y="581"/>
<text font-family="Dialog" font-size="12" x="1109" y="595">
value : mixed</text>
<rect fill="#000000" height="1" stroke="#000000" stroke-width="1" width="113" x="1105" y="605"/>
<polyline fill="none" points="1137,558 1137,485" stroke="#000000" stroke-width="1"/>
<polygon fill="#ffffff" points="1137,485 1144,497 1130,497" stroke="#ffffff" stroke-width="1"/>
<polygon fill="none" points="1137,485 1144,497 1130,497" stroke="#000000" stroke-width="1"/>
<rect fill="#ffffff" height="67" stroke="#ffffff" stroke-width="1" width="66" x="1281" y="558"/>
<rect fill="none" height="67" stroke="#000000" stroke-width="1" width="66" x="1281" y="558"/>
<text font-family="Dialog" font-size="12" x="1289" y="571">
Modifier</text>
<rect fill="#000000" height="1" stroke="#000000" stroke-width="1" width="66" x="1281" y="581"/>
<rect fill="#000000" height="1" stroke="#000000" stroke-width="1" width="66" x="1281" y="602"/>
<polyline fill="none" points="1281,558 1223,485" stroke="#333399" stroke-width="1"/>
<polygon fill="#ffffff" points="1223,485 1235,490 1224,498" stroke="#ffffff" stroke-width="1"/>
<polygon fill="none" points="1223,485 1235,490 1224,498" stroke="#333399" stroke-width="1"/>
<rect fill="#ffffff" height="104" stroke="#ffffff" stroke-width="1" width="113" x="1273" y="662"/>
<rect fill="none" height="104" stroke="#000000" stroke-width="1" width="113" x="1273" y="662"/>
<text font-family="Dialog" font-size="12" x="1282" y="675">
BinaryOperator</text>
<rect fill="#000000" height="1" stroke="#000000" stroke-width="1" width="113" x="1273" y="685"/>
<text font-family="Dialog" font-size="12" x="1277" y="699">
left : Feature</text>
<text font-family="Dialog" font-size="12" x="1277" y="715">
right : Feature</text>
<text font-family="Dialog" font-size="12" x="1277" y="731">
char : str</text>
<rect fill="#000000" height="1" stroke="#000000" stroke-width="1" width="113" x="1273" y="741"/>
<text font-family="Dialog" font-size="12" font-style="italic" x="1277" y="755">
operate()</text>
<polyline fill="none" points="1325,662 1325,624" stroke="#333399" stroke-width="1"/>
<polygon fill="#ffffff" points="1325,624 1332,636 1318,636" stroke="#ffffff" stroke-width="1"/>
<polygon fill="none" points="1325,624 1332,636 1318,636" stroke="#333399" stroke-width="1"/>
<rect fill="#ffffff" height="67" stroke="#ffffff" stroke-width="1" width="66" x="1433" y="646"/>
<rect fill="none" height="67" stroke="#000000" stroke-width="1" width="66" x="1433" y="646"/>
<text font-family="Dialog" font-size="12" x="1454" y="659">
add</text>
<rect fill="#000000" height="1" stroke="#000000" stroke-width="1" width="66" x="1433" y="669"/>
<rect fill="#000000" height="1" stroke="#000000" stroke-width="1" width="66" x="1433" y="690"/>
<rect fill="#ffffff" height="67" stroke="#ffffff" stroke-width="1" width="66" x="1433" y="758"/>
<rect fill="none" height="67" stroke="#000000" stroke-width="1" width="66" x="1433" y="758"/>
<text font-family="Dialog" font-size="12" x="1454" y="771">
sub</text>
<rect fill="#000000" height="1" stroke="#000000" stroke-width="1" width="66" x="1433" y="781"/>
<rect fill="#000000" height="1" stroke="#000000" stroke-width="1" width="66" x="1433" y="802"/>
<rect fill="#ffffff" height="66" stroke="#ffffff" stroke-width="1" width="66" x="1369" y="822"/>
<rect fill="none" height="66" stroke="#000000" stroke-width="1" width="66" x="1369" y="822"/>
<text font-family="Dialog" font-size="12" x="1391" y="835">
mul</text>
<rect fill="#000000" height="1" stroke="#000000" stroke-width="1" width="66" x="1369" y="845"/>
<rect fill="#000000" height="1" stroke="#000000" stroke-width="1" width="66" x="1369" y="866"/>
<rect fill="#ffffff" height="67" stroke="#ffffff" stroke-width="1" width="66" x="1281" y="822"/>
<rect fill="none" height="67" stroke="#000000" stroke-width="1" width="66" x="1281" y="822"/>
<text font-family="Dialog" font-size="12" x="1305" y="835">
div</text>
<rect fill="#000000" height="1" stroke="#000000" stroke-width="1" width="66" x="1281" y="845"/>
<rect fill="#000000" height="1" stroke="#000000" stroke-width="1" width="66" x="1281" y="866"/>
<polyline fill="none" points="1314,822 1314,765" stroke="#333399" stroke-width="1"/>
<polygon fill="#ffffff" points="1314,765 1321,777 1307,777" stroke="#ffffff" stroke-width="1"/>
<polygon fill="none" points="1314,765 1321,777 1307,777" stroke="#333399" stroke-width="1"/>
<polyline fill="none" points="1385,822 1385,765" stroke="#333399" stroke-width="1"/>
<polygon fill="#ffffff" points="1385,765 1392,777 1378,777" stroke="#ffffff" stroke-width="1"/>
<polygon fill="none" points="1385,765 1392,777 1378,777" stroke="#333399" stroke-width="1"/>
<polyline fill="none" points="1433,758 1385,758" stroke="#333399" stroke-width="1"/>
<polygon fill="#ffffff" points="1385,758 1397,751 1397,765" stroke="#ffffff" stroke-width="1"/>
<polygon fill="none" points="1385,758 1397,751 1397,765" stroke="#333399" stroke-width="1"/>
<polyline fill="none" points="1433,662 1385,662" stroke="#333399" stroke-width="1"/>
<polygon fill="#ffffff" points="1385,662 1397,655 1397,669" stroke="#ffffff" stroke-width="1"/>
<polygon fill="none" points="1385,662 1397,655 1397,669" stroke="#333399" stroke-width="1"/>
<rect fill="#ffffff" height="67" stroke="#ffffff" stroke-width="1" width="84" x="1113" y="878"/>
<rect fill="none" height="67" stroke="#000000" stroke-width="1" width="84" x="1113" y="878"/>
<text font-family="Dialog" font-size="12" x="1118" y="891">
Comparison</text>
<rect fill="#000000" height="1" stroke="#000000" stroke-width="1" width="84" x="1113" y="901"/>
<rect fill="#000000" height="1" stroke="#000000" stroke-width="1" width="84" x="1113" y="922"/>
<polyline fill="none" points="1196,878 1273,765" stroke="#333399" stroke-width="1"/>
<polygon fill="#ffffff" points="1273,765 1272,778 1260,770" stroke="#ffffff" stroke-width="1"/>
<polygon fill="none" points="1273,765 1272,778 1260,770" stroke="#333399" stroke-width="1"/>
<rect fill="#ffffff" height="66" stroke="#ffffff" stroke-width="1" width="66" x="1241" y="958"/>
<rect fill="none" height="66" stroke="#000000" stroke-width="1" width="66" x="1241" y="958"/>
<text font-family="Dialog" font-size="12" x="1267" y="971">
gt</text>
<rect fill="#000000" height="1" stroke="#000000" stroke-width="1" width="66" x="1241" y="981"/>
<rect fill="#000000" height="1" stroke="#000000" stroke-width="1" width="66" x="1241" y="1002"/>
<rect fill="#ffffff" height="67" stroke="#ffffff" stroke-width="1" width="66" x="1177" y="1014"/>
<rect fill="none" height="67" stroke="#000000" stroke-width="1" width="66" x="1177" y="1014"/>
<text font-family="Dialog" font-size="12" x="1206" y="1027">
lt</text>
<rect fill="#000000" height="1" stroke="#000000" stroke-width="1" width="66" x="1177" y="1037"/>
<rect fill="#000000" height="1" stroke="#000000" stroke-width="1" width="66" x="1177" y="1058"/>
<rect fill="#ffffff" height="67" stroke="#ffffff" stroke-width="1" width="66" x="1089" y="1022"/>
<rect fill="none" height="67" stroke="#000000" stroke-width="1" width="66" x="1089" y="1022"/>
<text font-family="Dialog" font-size="12" x="1114" y="1035">
ge</text>
<rect fill="#000000" height="1" stroke="#000000" stroke-width="1" width="66" x="1089" y="1045"/>
<rect fill="#000000" height="1" stroke="#000000" stroke-width="1" width="66" x="1089" y="1066"/>
<rect fill="#ffffff" height="67" stroke="#ffffff" stroke-width="1" width="66" x="1001" y="1014"/>
<rect fill="none" height="67" stroke="#000000" stroke-width="1" width="66" x="1001" y="1014"/>
<text font-family="Dialog" font-size="12" x="1028" y="1027">
le</text>
<rect fill="#000000" height="1" stroke="#000000" stroke-width="1" width="66" x="1001" y="1037"/>
<rect fill="#000000" height="1" stroke="#000000" stroke-width="1" width="66" x="1001" y="1058"/>
<rect fill="#ffffff" height="67" stroke="#ffffff" stroke-width="1" width="66" x="977" y="902"/>
<rect fill="none" height="67" stroke="#000000" stroke-width="1" width="66" x="977" y="902"/>
<text font-family="Dialog" font-size="12" x="1002" y="915">
eq</text>
<rect fill="#000000" height="1" stroke="#000000" stroke-width="1" width="66" x="977" y="925"/>
<rect fill="#000000" height="1" stroke="#000000" stroke-width="1" width="66" x="977" y="946"/>
<rect fill="#ffffff" height="67" stroke="#ffffff" stroke-width="1" width="66" x="897" y="902"/>
<rect fill="none" height="67" stroke="#000000" stroke-width="1" width="66" x="897" y="902"/>
<text font-family="Dialog" font-size="12" x="922" y="915">
ne</text>
<rect fill="#000000" height="1" stroke="#000000" stroke-width="1" width="66" x="897" y="925"/>
<rect fill="#000000" height="1" stroke="#000000" stroke-width="1" width="66" x="897" y="946"/>
<rect fill="#ffffff" height="67" stroke="#ffffff" stroke-width="1" width="66" x="1033" y="806"/>
<rect fill="none" height="67" stroke="#000000" stroke-width="1" width="66" x="1033" y="806"/>
<text font-family="Dialog" font-size="12" x="1054" y="819">
and</text>
<rect fill="#000000" height="1" stroke="#000000" stroke-width="1" width="66" x="1033" y="829"/>
<rect fill="#000000" height="1" stroke="#000000" stroke-width="1" width="66" x="1033" y="850"/>
<rect fill="#ffffff" height="66" stroke="#ffffff" stroke-width="1" width="66" x="1129" y="798"/>
<rect fill="none" height="66" stroke="#000000" stroke-width="1" width="66" x="1129" y="798"/>
<text font-family="Dialog" font-size="12" x="1155" y="811">
or</text>
<rect fill="#000000" height="1" stroke="#000000" stroke-width="1" width="66" x="1129" y="821"/>
<rect fill="#000000" height="1" stroke="#000000" stroke-width="1" width="66" x="1129" y="842"/>
<rect fill="#ffffff" height="67" stroke="#ffffff" stroke-width="1" width="66" x="897" y="822"/>
<rect fill="none" height="67" stroke="#000000" stroke-width="1" width="66" x="897" y="822"/>
<text font-family="Dialog" font-size="12" x="917" y="835">
max</text>
<rect fill="#000000" height="1" stroke="#000000" stroke-width="1" width="66" x="897" y="845"/>
<rect fill="#000000" height="1" stroke="#000000" stroke-width="1" width="66" x="897" y="866"/>
<rect fill="#ffffff" height="67" stroke="#ffffff" stroke-width="1" width="66" x="953" y="734"/>
<rect fill="none" height="67" stroke="#000000" stroke-width="1" width="66" x="953" y="734"/>
<text font-family="Dialog" font-size="12" x="975" y="747">
min</text>
<rect fill="#000000" height="1" stroke="#000000" stroke-width="1" width="66" x="953" y="757"/>
<rect fill="#000000" height="1" stroke="#000000" stroke-width="1" width="66" x="953" y="778"/>
<rect fill="#ffffff" height="66" stroke="#ffffff" stroke-width="1" width="66" x="1073" y="702"/>
<rect fill="none" height="66" stroke="#000000" stroke-width="1" width="66" x="1073" y="702"/>
<text font-family="Dialog" font-size="12" x="1096" y="715">
log</text>
<rect fill="#000000" height="1" stroke="#000000" stroke-width="1" width="66" x="1073" y="725"/>
<rect fill="#000000" height="1" stroke="#000000" stroke-width="1" width="66" x="1073" y="746"/>
<rect fill="#ffffff" height="67" stroke="#ffffff" stroke-width="1" width="66" x="905" y="998"/>
<rect fill="none" height="67" stroke="#000000" stroke-width="1" width="66" x="905" y="998"/>
<text font-family="Dialog" font-size="12" x="927" y="1011">
not</text>
<rect fill="#000000" height="1" stroke="#000000" stroke-width="1" width="66" x="905" y="1021"/>
<rect fill="#000000" height="1" stroke="#000000" stroke-width="1" width="66" x="905" y="1042"/>
<polyline fill="none" points="970,998 1113,944" stroke="#333399" stroke-width="1"/>
<polygon fill="#ffffff" points="1113,944 1104,954 1099,941" stroke="#ffffff" stroke-width="1"/>
<polygon fill="none" points="1113,944 1104,954 1099,941" stroke="#333399" stroke-width="1"/>
<polyline fill="none" points="1042,918 1113,918" stroke="#333399" stroke-width="1"/>
<polygon fill="#ffffff" points="1113,918 1101,925 1101,911" stroke="#ffffff" stroke-width="1"/>
<polygon fill="none" points="1113,918 1101,925 1101,911" stroke="#333399" stroke-width="1"/>
<polyline fill="none" points="962,902 1113,902" stroke="#333399" stroke-width="1"/>
<polygon fill="#ffffff" points="1113,902 1101,909 1101,895" stroke="#ffffff" stroke-width="1"/>
<polygon fill="none" points="1113,902 1101,909 1101,895" stroke="#333399" stroke-width="1"/>
<polyline fill="none" points="962,878 1113,878" stroke="#333399" stroke-width="1"/>
<polygon fill="#ffffff" points="1113,878 1101,885 1101,871" stroke="#ffffff" stroke-width="1"/>
<polygon fill="none" points="1113,878 1101,885 1101,871" stroke="#333399" stroke-width="1"/>
<polyline fill="none" points="1018,800 1113,878" stroke="#333399" stroke-width="1"/>
<polygon fill="#ffffff" points="1113,878 1099,875 1108,864" stroke="#ffffff" stroke-width="1"/>
<polygon fill="none" points="1113,878 1099,875 1108,864" stroke="#333399" stroke-width="1"/>
<polyline fill="none" points="1098,872 1113,878" stroke="#333399" stroke-width="1"/>
<polygon fill="#ffffff" points="1113,878 1099,880 1104,867" stroke="#ffffff" stroke-width="1"/>
<polygon fill="none" points="1113,878 1099,880 1104,867" stroke="#333399" stroke-width="1"/>
<polyline fill="none" points="1113,767 1113,878" stroke="#333399" stroke-width="1"/>
<polygon fill="#ffffff" points="1113,878 1106,866 1120,866" stroke="#ffffff" stroke-width="1"/>
<polygon fill="none" points="1113,878 1106,866 1120,866" stroke="#333399" stroke-width="1"/>
<polyline fill="none" points="1170,863 1170,878" stroke="#333399" stroke-width="1"/>
<polygon fill="#ffffff" points="1170,878 1163,866 1177,866" stroke="#ffffff" stroke-width="1"/>
<polygon fill="none" points="1170,878 1163,866 1177,866" stroke="#333399" stroke-width="1"/>
<polyline fill="none" points="1241,958 1196,944" stroke="#333399" stroke-width="1"/>
<polygon fill="#ffffff" points="1196,944 1209,940 1205,954" stroke="#ffffff" stroke-width="1"/>
<polygon fill="none" points="1196,944 1209,940 1205,954" stroke="#333399" stroke-width="1"/>
<polyline fill="none" points="1194,1014 1194,944" stroke="#333399" stroke-width="1"/>
<polygon fill="#ffffff" points="1194,944 1201,956 1187,956" stroke="#ffffff" stroke-width="1"/>
<polygon fill="none" points="1194,944 1201,956 1187,956" stroke="#333399" stroke-width="1"/>
<polyline fill="none" points="1122,1022 1122,944" stroke="#333399" stroke-width="1"/>
<polygon fill="#ffffff" points="1122,944 1129,956 1115,956" stroke="#ffffff" stroke-width="1"/>
<polygon fill="none" points="1122,944 1129,956 1115,956" stroke="#333399" stroke-width="1"/>
<polyline fill="none" points="1066,1014 1113,944" stroke="#333399" stroke-width="1"/>
<polygon fill="#ffffff" points="1113,944 1112,957 1100,950" stroke="#ffffff" stroke-width="1"/>
<polygon fill="none" points="1113,944 1112,957 1100,950" stroke="#333399" stroke-width="1"/>
<rect fill="#ffffff" height="67" stroke="#ffffff" stroke-width="1" width="100" x="1329" y="486"/>
<rect fill="none" height="67" stroke="#000000" stroke-width="1" width="100" x="1329" y="486"/>
<text font-family="Dialog" font-size="12" x="1334" y="499">
FeatureVector</text>
<rect fill="#000000" height="1" stroke="#000000" stroke-width="1" width="100" x="1329" y="509"/>
<rect fill="#000000" height="1" stroke="#000000" stroke-width="1" width="100" x="1329" y="530"/>
<polyline fill="none" points="1329,486 1223,485" stroke="#333399" stroke-width="1"/>
<polygon fill="#ffffff" points="1223,485 1235,478 1234,492" stroke="#ffffff" stroke-width="1"/>
<polygon fill="none" points="1223,485 1235,478 1234,492" stroke="#333399" stroke-width="1"/>
<rect fill="#ffffff" height="67" stroke="#ffffff" stroke-width="1" width="141" x="1465" y="342"/>
<rect fill="none" height="67" stroke="#000000" stroke-width="1" width="141" x="1465" y="342"/>
<text font-family="Dialog" font-size="12" x="1470" y="355">
features.Namespace</text>
<rect fill="#000000" height="1" stroke="#000000" stroke-width="1" width="141" x="1465" y="365"/>
<rect fill="#000000" height="1" stroke="#000000" stroke-width="1" width="141" x="1465" y="386"/>
<rect fill="#ffffff" height="67" stroke="#ffffff" stroke-width="1" width="118" x="1329" y="334"/>
<rect fill="none" height="67" stroke="#000000" stroke-width="1" width="118" x="1329" y="334"/>
<text font-family="Dialog" font-size="12" x="1334" y="347">
features.Revision</text>
<rect fill="#000000" height="1" stroke="#000000" stroke-width="1" width="118" x="1329" y="357"/>
<rect fill="#000000" height="1" stroke="#000000" stroke-width="1" width="118" x="1329" y="378"/>
<rect fill="#ffffff" height="69" stroke="#ffffff" stroke-width="1" width="113" x="1393" y="366"/>
<rect fill="none" height="69" stroke="#000000" stroke-width="1" width="113" x="1393" y="366"/>
<text font-family="Dialog" font-size="12" x="1405" y="379">
features.Page</text>
<rect fill="#000000" height="1" stroke="#000000" stroke-width="1" width="113" x="1393" y="389"/>
<rect fill="#000000" height="1" stroke="#000000" stroke-width="1" width="113" x="1393" y="411"/>
<polyline fill="none" points="1563,342 1563,277" stroke="#333399" stroke-width="1"/>
<polygon fill="#ffffff" points="1563,277 1570,289 1556,289" stroke="#ffffff" stroke-width="1"/>
<polygon fill="none" points="1563,277 1570,289 1556,289" stroke="#333399" stroke-width="1"/>
<polyline fill="none" points="1457,366 1457,277" stroke="#333399" stroke-width="1"/>
<polygon fill="#ffffff" points="1457,277 1464,289 1450,289" stroke="#ffffff" stroke-width="1"/>
<polygon fill="none" points="1457,277 1464,289 1450,289" stroke="#333399" stroke-width="1"/>
<polyline fill="none" points="1362,334 1362,277" stroke="#333399" stroke-width="1"/>
<polygon fill="#ffffff" points="1362,277 1369,289 1355,289" stroke="#ffffff" stroke-width="1"/>
<polygon fill="none" points="1362,277 1369,289 1355,289" stroke="#333399" stroke-width="1"/>
<rect fill="#ffffff" height="184" stroke="#ffffff" stroke-width="1" width="256" x="625" y="14"/>
<rect fill="none" height="184" stroke="#000000" stroke-width="1" width="256" x="625" y="14"/>
<text font-family="Dialog" font-size="12" x="703" y="27">
ScoreProcessor</text>
<rect fill="#000000" height="1" stroke="#000000" stroke-width="1" width="256" x="625" y="37"/>
<text font-family="Dialog" font-size="12" x="629" y="51">
scorer_model : ScorerModel</text>
<text font-family="Dialog" font-size="12" x="629" y="67">
extractor : Extractor</text>
<text font-family="Dialog" font-size="12" x="629" y="83">
cpu_workers : int</text>
<text font-family="Dialog" font-size="12" x="629" y="99">
batch_size : int</text>
<text font-family="Dialog" font-size="12" x="629" y="115">
io_workers : int</text>
<text font-family="Dialog" font-size="12" x="629" y="131">
scores_ex : ThreadPoolExecutor</text>
<text font-family="Dialog" font-size="12" x="629" y="147">
process_ex : ProcessPoolExecutor</text>
<text font-family="Dialog" font-size="12" x="629" y="163">
root_datasources : Array&lt;Datasource&gt;</text>
<rect fill="#000000" height="1" stroke="#000000" stroke-width="1" width="256" x="625" y="173"/>
<text font-family="Dialog" font-size="12" x="629" y="187">
score()</text>
<rect fill="#ffffff" height="168" stroke="#ffffff" stroke-width="1" width="190" x="33" y="22"/>
<rect fill="none" height="168" stroke="#000000" stroke-width="1" width="190" x="33" y="22"/>
<text font-family="Dialog" font-size="12" x="57" y="35">
dependencies.Context</text>
<rect fill="#000000" height="1" stroke="#000000" stroke-width="1" width="190" x="33" y="45"/>
<text font-family="Dialog" font-size="12" x="37" y="59">
context : dict&lt;</text>
<text font-family="Dialog" font-size="12" x="37" y="75">
cache : dict&lt;</text>
<rect fill="#000000" height="1" stroke="#000000" stroke-width="1" width="190" x="33" y="85"/>
<text font-family="Dialog" font-size="12" x="37" y="99">
solve()</text>
<text font-family="Dialog" font-size="12" x="37" y="115">
expand()</text>
<text font-family="Dialog" font-size="12" x="37" y="131">
dig()</text>
<text font-family="Dialog" font-size="12" x="37" y="147">
draw()</text>
<text font-family="Dialog" font-size="12" x="37" y="163">
update()</text>
<text font-family="Dialog" font-size="12" x="37" y="179">
update_context_and_cache()</text>
<polyline fill="none" points="141,358 141,189" stroke="#333399" stroke-width="1"/>
<polygon fill="#ffffff" points="141,189 148,201 134,201" stroke="#ffffff" stroke-width="1"/>
<polygon fill="none" points="141,189 148,201 134,201" stroke="#333399" stroke-width="1"/>
<rect fill="#ffffff" height="67" stroke="#ffffff" stroke-width="1" width="106" x="33" y="478"/>
<rect fill="none" height="67" stroke="#000000" stroke-width="1" width="106" x="33" y="478"/>
<text font-family="Dialog" font-size="12" x="38" y="491">
OfflineExtractor</text>
<rect fill="#000000" height="1" stroke="#000000" stroke-width="1" width="106" x="33" y="501"/>
<rect fill="#000000" height="1" stroke="#000000" stroke-width="1" width="106" x="33" y="522"/>
<polyline fill="none" points="89,478 89,442" stroke="#333399" stroke-width="1"/>
<polygon fill="#ffffff" points="89,442 96,454 82,454" stroke="#ffffff" stroke-width="1"/>
<polygon fill="none" points="89,442 96,454 82,454" stroke="#333399" stroke-width="1"/>
<rect fill="#ffffff" height="67" stroke="#ffffff" stroke-width="1" width="119" x="705" y="662"/>
<rect fill="none" height="67" stroke="#000000" stroke-width="1" width="119" x="705" y="662"/>
<text font-family="Dialog" font-size="12" x="710" y="675">
DependencyError</text>
<rect fill="#000000" height="1" stroke="#000000" stroke-width="1" width="119" x="705" y="685"/>
<rect fill="#000000" height="1" stroke="#000000" stroke-width="1" width="119" x="705" y="706"/>
<polyline fill="none" points="1682,398 1682,317" stroke="#333399" stroke-width="1"/>
<polygon fill="#ffffff" points="1682,317 1689,329 1675,329" stroke="#ffffff" stroke-width="1"/>
<polygon fill="none" points="1682,317 1689,329 1675,329" stroke="#333399" stroke-width="1"/>
<rect fill="#ffffff" height="67" stroke="#ffffff" stroke-width="1" width="141" x="1721" y="486"/>
<rect fill="none" height="67" stroke="#000000" stroke-width="1" width="141" x="1721" y="486"/>
<text font-family="Dialog" font-size="12" x="1726" y="499">
PageCreationRevDoc</text>
<rect fill="#000000" height="1" stroke="#000000" stroke-width="1" width="141" x="1721" y="509"/>
<rect fill="#000000" height="1" stroke="#000000" stroke-width="1" width="141" x="1721" y="530"/>
<polyline fill="none" points="1793,486 1793,317" stroke="#333399" stroke-width="1"/>
<polygon fill="#ffffff" points="1793,317 1800,329 1786,329" stroke="#ffffff" stroke-width="1"/>
<polygon fill="none" points="1793,317 1800,329 1786,329" stroke="#333399" stroke-width="1"/>
<rect fill="#ffffff" height="67" stroke="#ffffff" stroke-width="1" width="86" x="1609" y="502"/>
<rect fill="none" height="67" stroke="#000000" stroke-width="1" width="86" x="1609" y="502"/>
<text font-family="Dialog" font-size="12" x="1614" y="515">
UserInfoDoc</text>
<rect fill="#000000" height="1" stroke="#000000" stroke-width="1" width="86" x="1609" y="525"/>
<rect fill="#000000" height="1" stroke="#000000" stroke-width="1" width="86" x="1609" y="546"/>
<polyline fill="none" points="1665,502 1665,317" stroke="#333399" stroke-width="1"/>
<polygon fill="#ffffff" points="1665,317 1672,329 1658,329" stroke="#ffffff" stroke-width="1"/>
<polygon fill="none" points="1665,317 1672,329 1658,329" stroke="#333399" stroke-width="1"/>
<rect fill="#ffffff" height="67" stroke="#ffffff" stroke-width="1" width="111" x="1737" y="398"/>
<rect fill="none" height="67" stroke="#000000" stroke-width="1" width="111" x="1737" y="398"/>
<text font-family="Dialog" font-size="12" x="1742" y="411">
LastUserRevDoc</text>
<rect fill="#000000" height="1" stroke="#000000" stroke-width="1" width="111" x="1737" y="421"/>
<rect fill="#000000" height="1" stroke="#000000" stroke-width="1" width="111" x="1737" y="442"/>
<rect fill="#ffffff" height="67" stroke="#ffffff" stroke-width="1" width="82" x="1633" y="398"/>
<rect fill="none" height="67" stroke="#000000" stroke-width="1" width="82" x="1633" y="398"/>
<text font-family="Dialog" font-size="12" x="1638" y="411">
RevDocById</text>
<rect fill="#000000" height="1" stroke="#000000" stroke-width="1" width="82" x="1633" y="421"/>
<rect fill="#000000" height="1" stroke="#000000" stroke-width="1" width="82" x="1633" y="442"/>
<polyline fill="none" points="1822,398 1822,317" stroke="#333399" stroke-width="1"/>
<polygon fill="#ffffff" points="1822,317 1829,329 1815,329" stroke="#ffffff" stroke-width="1"/>
<polygon fill="none" points="1822,317 1829,329 1815,329" stroke="#333399" stroke-width="1"/>
<rect fill="#ffffff" height="67" stroke="#ffffff" stroke-width="1" width="161" x="1449" y="22"/>
<rect fill="none" height="67" stroke="#000000" stroke-width="1" width="161" x="1449" y="22"/>
<text font-family="Dialog" font-size="12" x="1454" y="35">
extractors.RevisionPage</text>
<rect fill="#000000" height="1" stroke="#000000" stroke-width="1" width="161" x="1449" y="45"/>
<rect fill="#000000" height="1" stroke="#000000" stroke-width="1" width="161" x="1449" y="66"/>
<rect fill="#ffffff" height="67" stroke="#ffffff" stroke-width="1" width="158" x="1617" y="14"/>
<rect fill="none" height="67" stroke="#000000" stroke-width="1" width="158" x="1617" y="14"/>
<text font-family="Dialog" font-size="12" x="1622" y="27">
extractors.RevisionUser</text>
<rect fill="#000000" height="1" stroke="#000000" stroke-width="1" width="158" x="1617" y="37"/>
<rect fill="#000000" height="1" stroke="#000000" stroke-width="1" width="158" x="1617" y="58"/>
<rect fill="#ffffff" height="67" stroke="#ffffff" stroke-width="1" width="181" x="1265" y="14"/>
<rect fill="none" height="67" stroke="#000000" stroke-width="1" width="181" x="1265" y="14"/>
<text font-family="Dialog" font-size="12" x="1270" y="27">
extractors.RevisionUserInfo</text>
<rect fill="#000000" height="1" stroke="#000000" stroke-width="1" width="181" x="1265" y="37"/>
<rect fill="#000000" height="1" stroke="#000000" stroke-width="1" width="181" x="1265" y="58"/>
<rect fill="#ffffff" height="67" stroke="#ffffff" stroke-width="1" width="152" x="1433" y="62"/>
<rect fill="none" height="67" stroke="#000000" stroke-width="1" width="152" x="1433" y="62"/>
<text font-family="Dialog" font-size="12" x="1438" y="75">
extractors.Namespace</text>
<rect fill="#000000" height="1" stroke="#000000" stroke-width="1" width="152" x="1433" y="85"/>
<rect fill="#000000" height="1" stroke="#000000" stroke-width="1" width="152" x="1433" y="106"/>
<rect fill="#ffffff" height="67" stroke="#ffffff" stroke-width="1" width="129" x="1289" y="54"/>
<rect fill="none" height="67" stroke="#000000" stroke-width="1" width="129" x="1289" y="54"/>
<text font-family="Dialog" font-size="12" x="1294" y="67">
extractors.Revision</text>
<rect fill="#000000" height="1" stroke="#000000" stroke-width="1" width="129" x="1289" y="77"/>
<rect fill="#000000" height="1" stroke="#000000" stroke-width="1" width="129" x="1289" y="98"/>
<polyline fill="none" points="1417,120 1417,158" stroke="#333399" stroke-width="1"/>
<polygon fill="#ffffff" points="1417,158 1410,146 1424,146" stroke="#ffffff" stroke-width="1"/>
<polygon fill="none" points="1417,158 1410,146 1424,146" stroke="#333399" stroke-width="1"/>
<polyline fill="none" points="1387,80 1387,158" stroke="#333399" stroke-width="1"/>
<polygon fill="#ffffff" points="1387,158 1380,146 1394,146" stroke="#ffffff" stroke-width="1"/>
<polygon fill="none" points="1387,158 1380,146 1394,146" stroke="#333399" stroke-width="1"/>
<polyline fill="none" points="1589,88 1589,158" stroke="#333399" stroke-width="1"/>
<polygon fill="#ffffff" points="1589,158 1582,146 1596,146" stroke="#ffffff" stroke-width="1"/>
<polygon fill="none" points="1589,158 1582,146 1596,146" stroke="#333399" stroke-width="1"/>
<polyline fill="none" points="1617,80 1589,158" stroke="#333399" stroke-width="1"/>
<polygon fill="#ffffff" points="1589,158 1586,144 1599,149" stroke="#ffffff" stroke-width="1"/>
<polygon fill="none" points="1589,158 1586,144 1599,149" stroke="#333399" stroke-width="1"/>
<polyline fill="none" points="1584,128 1584,158" stroke="#333399" stroke-width="1"/>
<polygon fill="#ffffff" points="1584,158 1577,146 1591,146" stroke="#ffffff" stroke-width="1"/>
<polygon fill="none" points="1584,158 1577,146 1591,146" stroke="#333399" stroke-width="1"/>
<rect fill="#ffffff" height="104" stroke="#ffffff" stroke-width="1" width="113" x="353" y="678"/>
<rect fill="none" height="104" stroke="#000000" stroke-width="1" width="113" x="353" y="678"/>
<text font-family="Dialog" font-size="12" x="362" y="691">
MLScorerModel</text>
<rect fill="#000000" height="1" stroke="#000000" stroke-width="1" width="113" x="353" y="701"/>
<text font-family="Dialog" font-size="12" x="357" y="715">
trained : TODO</text>
<rect fill="#000000" height="1" stroke="#000000" stroke-width="1" width="113" x="353" y="725"/>
<text font-family="Dialog" font-size="12" x="357" y="739">
train()</text>
<text font-family="Dialog" font-size="12" x="357" y="755">
test()</text>
<line fill="#000000" stroke="#000000" stroke-width="1" x1="357" x2="439" y1="772" y2="772"/>
<text font-family="Dialog" font-size="12" x="357" y="771">
from_config()</text>
<polyline fill="none" points="405,678 405,621" stroke="#333399" stroke-width="1"/>
<polygon fill="#ffffff" points="405,621 412,633 398,633" stroke="#ffffff" stroke-width="1"/>
<polygon fill="none" points="405,621 412,633 398,633" stroke="#333399" stroke-width="1"/>
</svg>
