<?xml version="1.0" encoding="utf-8" ?>
<!DOCTYPE svg PUBLIC "-//W3C//DTD SVG 1.1//EN" "http://www.w3.org/Graphics/SVG/1.1/DTD/svg11.dtd">
<svg height="532" version="1.1" width="1370" xmlns="http://www.w3.org/2000/svg">
<line fill="#000000" stroke="#000000" stroke-width="1" x1="298" x2="298" y1="63" y2="68"/>
<line fill="#000000" stroke="#000000" stroke-width="1" x1="298" x2="298" y1="73" y2="78"/>
<line fill="#000000" stroke="#000000" stroke-width="1" x1="298" x2="298" y1="83" y2="88"/>
<line fill="#000000" stroke="#000000" stroke-width="1" x1="298" x2="298" y1="93" y2="98"/>
<line fill="#000000" stroke="#000000" stroke-width="1" x1="298" x2="298" y1="103" y2="108"/>
<line fill="#000000" stroke="#000000" stroke-width="1" x1="298" x2="298" y1="113" y2="118"/>
<line fill="#000000" stroke="#000000" stroke-width="1" x1="298" x2="298" y1="123" y2="128"/>
<line fill="#000000" stroke="#000000" stroke-width="1" x1="298" x2="298" y1="133" y2="138"/>
<line fill="#000000" stroke="#000000" stroke-width="1" x1="298" x2="298" y1="143" y2="148"/>
<line fill="#000000" stroke="#000000" stroke-width="1" x1="298" x2="298" y1="153" y2="158"/>
<line fill="#000000" stroke="#000000" stroke-width="1" x1="298" x2="298" y1="163" y2="168"/>
<line fill="#000000" stroke="#000000" stroke-width="1" x1="298" x2="298" y1="173" y2="178"/>
<line fill="#000000" stroke="#000000" stroke-width="1" x1="298" x2="298" y1="183" y2="188"/>
<line fill="#000000" stroke="#000000" stroke-width="1" x1="298" x2="298" y1="193" y2="198"/>
<line fill="#000000" stroke="#000000" stroke-width="1" x1="298" x2="298" y1="203" y2="208"/>
<line fill="#000000" stroke="#000000" stroke-width="1" x1="298" x2="298" y1="213" y2="218"/>
<line fill="#000000" stroke="#000000" stroke-width="1" x1="298" x2="298" y1="223" y2="228"/>
<line fill="#000000" stroke="#000000" stroke-width="1" x1="298" x2="298" y1="233" y2="238"/>
<line fill="#000000" stroke="#000000" stroke-width="1" x1="298" x2="298" y1="243" y2="248"/>
<line fill="#000000" stroke="#000000" stroke-width="1" x1="298" x2="298" y1="253" y2="258"/>
<line fill="#000000" stroke="#000000" stroke-width="1" x1="298" x2="298" y1="263" y2="268"/>
<line fill="#000000" stroke="#000000" stroke-width="1" x1="298" x2="298" y1="273" y2="278"/>
<line fill="#000000" stroke="#000000" stroke-width="1" x1="298" x2="298" y1="283" y2="288"/>
<line fill="#000000" stroke="#000000" stroke-width="1" x1="298" x2="298" y1="293" y2="298"/>
<line fill="#000000" stroke="#000000" stroke-width="1" x1="298" x2="298" y1="303" y2="308"/>
<line fill="#000000" stroke="#000000" stroke-width="1" x1="298" x2="298" y1="313" y2="318"/>
<line fill="#000000" stroke="#000000" stroke-width="1" x1="298" x2="298" y1="323" y2="328"/>
<line fill="#000000" stroke="#000000" stroke-width="1" x1="298" x2="298" y1="333" y2="338"/>
<line fill="#000000" stroke="#000000" stroke-width="1" x1="298" x2="298" y1="343" y2="348"/>
<line fill="#000000" stroke="#000000" stroke-width="1" x1="298" x2="298" y1="353" y2="358"/>
<line fill="#000000" stroke="#000000" stroke-width="1" x1="298" x2="298" y1="363" y2="368"/>
<line fill="#000000" stroke="#000000" stroke-width="1" x1="298" x2="298" y1="373" y2="378"/>
<line fill="#000000" stroke="#000000" stroke-width="1" x1="298" x2="298" y1="383" y2="388"/>
<line fill="#000000" stroke="#000000" stroke-width="1" x1="298" x2="298" y1="393" y2="398"/>
<line fill="#000000" stroke="#000000" stroke-width="1" x1="298" x2="298" y1="403" y2="408"/>
<line fill="#000000" stroke="#000000" stroke-width="1" x1="298" x2="298" y1="413" y2="418"/>
<line fill="#000000" stroke="#000000" stroke-width="1" x1="298" x2="298" y1="423" y2="428"/>
<line fill="#000000" stroke="#000000" stroke-width="1" x1="298" x2="298" y1="433" y2="438"/>
<line fill="#000000" stroke="#000000" stroke-width="1" x1="298" x2="298" y1="443" y2="448"/>
<line fill="#000000" stroke="#000000" stroke-width="1" x1="298" x2="298" y1="453" y2="458"/>
<line fill="#000000" stroke="#000000" stroke-width="1" x1="298" x2="298" y1="463" y2="468"/>
<line fill="#000000" stroke="#000000" stroke-width="1" x1="298" x2="298" y1="473" y2="478"/>
<line fill="#000000" stroke="#000000" stroke-width="1" x1="298" x2="298" y1="483" y2="488"/>
<line fill="#000000" stroke="#000000" stroke-width="1" x1="298" x2="298" y1="493" y2="498"/>
<line fill="#000000" stroke="#000000" stroke-width="1" x1="298" x2="298" y1="503" y2="508"/>
<line fill="#000000" stroke="#000000" stroke-width="1" x1="298" x2="298" y1="513" y2="517"/>
<rect fill="#ffffff" height="454" stroke="#ffffff" stroke-width="1" width="20" x="288" y="63"/>
<rect fill="none" height="454" stroke="#000000" stroke-width="1" width="20" x="288" y="63"/>
<rect fill="#ffffff" height="50" stroke="#ffffff" stroke-width="1" width="168" x="214" y="14"/>
<rect fill="none" height="50" stroke="#000000" stroke-width="1" width="168" x="214" y="14"/>
<text font-family="Dialog" font-size="12" x="286" y="27">
:API</text>
<line fill="#000000" stroke="#000000" stroke-width="1" x1="481" x2="481" y1="63" y2="68"/>
<line fill="#000000" stroke="#000000" stroke-width="1" x1="481" x2="481" y1="73" y2="78"/>
<line fill="#000000" stroke="#000000" stroke-width="1" x1="481" x2="481" y1="83" y2="88"/>
<line fill="#000000" stroke="#000000" stroke-width="1" x1="481" x2="481" y1="93" y2="98"/>
<line fill="#000000" stroke="#000000" stroke-width="1" x1="481" x2="481" y1="103" y2="108"/>
<line fill="#000000" stroke="#000000" stroke-width="1" x1="481" x2="481" y1="113" y2="118"/>
<line fill="#000000" stroke="#000000" stroke-width="1" x1="481" x2="481" y1="123" y2="128"/>
<line fill="#000000" stroke="#000000" stroke-width="1" x1="481" x2="481" y1="133" y2="138"/>
<line fill="#000000" stroke="#000000" stroke-width="1" x1="481" x2="481" y1="143" y2="148"/>
<line fill="#000000" stroke="#000000" stroke-width="1" x1="481" x2="481" y1="153" y2="158"/>
<line fill="#000000" stroke="#000000" stroke-width="1" x1="481" x2="481" y1="163" y2="168"/>
<line fill="#000000" stroke="#000000" stroke-width="1" x1="481" x2="481" y1="173" y2="178"/>
<line fill="#000000" stroke="#000000" stroke-width="1" x1="481" x2="481" y1="183" y2="188"/>
<line fill="#000000" stroke="#000000" stroke-width="1" x1="481" x2="481" y1="193" y2="198"/>
<line fill="#000000" stroke="#000000" stroke-width="1" x1="481" x2="481" y1="203" y2="208"/>
<line fill="#000000" stroke="#000000" stroke-width="1" x1="481" x2="481" y1="213" y2="218"/>
<line fill="#000000" stroke="#000000" stroke-width="1" x1="481" x2="481" y1="223" y2="228"/>
<line fill="#000000" stroke="#000000" stroke-width="1" x1="481" x2="481" y1="233" y2="238"/>
<line fill="#000000" stroke="#000000" stroke-width="1" x1="481" x2="481" y1="243" y2="248"/>
<line fill="#000000" stroke="#000000" stroke-width="1" x1="481" x2="481" y1="253" y2="258"/>
<line fill="#000000" stroke="#000000" stroke-width="1" x1="481" x2="481" y1="263" y2="268"/>
<line fill="#000000" stroke="#000000" stroke-width="1" x1="481" x2="481" y1="273" y2="278"/>
<line fill="#000000" stroke="#000000" stroke-width="1" x1="481" x2="481" y1="283" y2="288"/>
<line fill="#000000" stroke="#000000" stroke-width="1" x1="481" x2="481" y1="293" y2="298"/>
<line fill="#000000" stroke="#000000" stroke-width="1" x1="481" x2="481" y1="303" y2="308"/>
<line fill="#000000" stroke="#000000" stroke-width="1" x1="481" x2="481" y1="313" y2="318"/>
<line fill="#000000" stroke="#000000" stroke-width="1" x1="481" x2="481" y1="323" y2="328"/>
<line fill="#000000" stroke="#000000" stroke-width="1" x1="481" x2="481" y1="333" y2="338"/>
<line fill="#000000" stroke="#000000" stroke-width="1" x1="481" x2="481" y1="343" y2="348"/>
<line fill="#000000" stroke="#000000" stroke-width="1" x1="481" x2="481" y1="353" y2="358"/>
<line fill="#000000" stroke="#000000" stroke-width="1" x1="481" x2="481" y1="363" y2="368"/>
<line fill="#000000" stroke="#000000" stroke-width="1" x1="481" x2="481" y1="373" y2="378"/>
<line fill="#000000" stroke="#000000" stroke-width="1" x1="481" x2="481" y1="383" y2="388"/>
<line fill="#000000" stroke="#000000" stroke-width="1" x1="481" x2="481" y1="393" y2="398"/>
<line fill="#000000" stroke="#000000" stroke-width="1" x1="481" x2="481" y1="403" y2="408"/>
<line fill="#000000" stroke="#000000" stroke-width="1" x1="481" x2="481" y1="413" y2="418"/>
<line fill="#000000" stroke="#000000" stroke-width="1" x1="481" x2="481" y1="423" y2="428"/>
<line fill="#000000" stroke="#000000" stroke-width="1" x1="481" x2="481" y1="433" y2="438"/>
<line fill="#000000" stroke="#000000" stroke-width="1" x1="481" x2="481" y1="443" y2="448"/>
<line fill="#000000" stroke="#000000" stroke-width="1" x1="481" x2="481" y1="453" y2="458"/>
<line fill="#000000" stroke="#000000" stroke-width="1" x1="481" x2="481" y1="463" y2="468"/>
<line fill="#000000" stroke="#000000" stroke-width="1" x1="481" x2="481" y1="473" y2="478"/>
<line fill="#000000" stroke="#000000" stroke-width="1" x1="481" x2="481" y1="483" y2="488"/>
<line fill="#000000" stroke="#000000" stroke-width="1" x1="481" x2="481" y1="493" y2="498"/>
<line fill="#000000" stroke="#000000" stroke-width="1" x1="481" x2="481" y1="503" y2="508"/>
<line fill="#000000" stroke="#000000" stroke-width="1" x1="481" x2="481" y1="513" y2="517"/>
<rect fill="#ffffff" height="386" stroke="#ffffff" stroke-width="1" width="20" x="471" y="131"/>
<rect fill="none" height="386" stroke="#000000" stroke-width="1" width="20" x="471" y="131"/>
<rect fill="#ffffff" height="50" stroke="#ffffff" stroke-width="1" width="150" x="406" y="14"/>
<rect fill="none" height="50" stroke="#000000" stroke-width="1" width="150" x="406" y="14"/>
<text font-family="Dialog" font-size="12" x="421" y="27">
:PrecacheEndpoint</text>
<line fill="#000000" stroke="#000000" stroke-width="1" x1="649" x2="649" y1="63" y2="68"/>
<line fill="#000000" stroke="#000000" stroke-width="1" x1="649" x2="649" y1="73" y2="78"/>
<line fill="#000000" stroke="#000000" stroke-width="1" x1="649" x2="649" y1="83" y2="88"/>
<line fill="#000000" stroke="#000000" stroke-width="1" x1="649" x2="649" y1="93" y2="98"/>
<line fill="#000000" stroke="#000000" stroke-width="1" x1="649" x2="649" y1="103" y2="108"/>
<line fill="#000000" stroke="#000000" stroke-width="1" x1="649" x2="649" y1="113" y2="118"/>
<line fill="#000000" stroke="#000000" stroke-width="1" x1="649" x2="649" y1="123" y2="128"/>
<line fill="#000000" stroke="#000000" stroke-width="1" x1="649" x2="649" y1="133" y2="138"/>
<line fill="#000000" stroke="#000000" stroke-width="1" x1="649" x2="649" y1="143" y2="148"/>
<line fill="#000000" stroke="#000000" stroke-width="1" x1="649" x2="649" y1="153" y2="158"/>
<line fill="#000000" stroke="#000000" stroke-width="1" x1="649" x2="649" y1="163" y2="168"/>
<line fill="#000000" stroke="#000000" stroke-width="1" x1="649" x2="649" y1="173" y2="178"/>
<line fill="#000000" stroke="#000000" stroke-width="1" x1="649" x2="649" y1="183" y2="188"/>
<line fill="#000000" stroke="#000000" stroke-width="1" x1="649" x2="649" y1="193" y2="198"/>
<line fill="#000000" stroke="#000000" stroke-width="1" x1="649" x2="649" y1="203" y2="208"/>
<line fill="#000000" stroke="#000000" stroke-width="1" x1="649" x2="649" y1="213" y2="218"/>
<line fill="#000000" stroke="#000000" stroke-width="1" x1="649" x2="649" y1="223" y2="228"/>
<line fill="#000000" stroke="#000000" stroke-width="1" x1="649" x2="649" y1="233" y2="238"/>
<line fill="#000000" stroke="#000000" stroke-width="1" x1="649" x2="649" y1="243" y2="248"/>
<line fill="#000000" stroke="#000000" stroke-width="1" x1="649" x2="649" y1="253" y2="258"/>
<line fill="#000000" stroke="#000000" stroke-width="1" x1="649" x2="649" y1="263" y2="268"/>
<line fill="#000000" stroke="#000000" stroke-width="1" x1="649" x2="649" y1="273" y2="278"/>
<line fill="#000000" stroke="#000000" stroke-width="1" x1="649" x2="649" y1="283" y2="288"/>
<line fill="#000000" stroke="#000000" stroke-width="1" x1="649" x2="649" y1="293" y2="298"/>
<line fill="#000000" stroke="#000000" stroke-width="1" x1="649" x2="649" y1="303" y2="308"/>
<line fill="#000000" stroke="#000000" stroke-width="1" x1="649" x2="649" y1="313" y2="318"/>
<line fill="#000000" stroke="#000000" stroke-width="1" x1="649" x2="649" y1="323" y2="328"/>
<line fill="#000000" stroke="#000000" stroke-width="1" x1="649" x2="649" y1="333" y2="338"/>
<line fill="#000000" stroke="#000000" stroke-width="1" x1="649" x2="649" y1="343" y2="348"/>
<line fill="#000000" stroke="#000000" stroke-width="1" x1="649" x2="649" y1="353" y2="358"/>
<line fill="#000000" stroke="#000000" stroke-width="1" x1="649" x2="649" y1="363" y2="368"/>
<line fill="#000000" stroke="#000000" stroke-width="1" x1="649" x2="649" y1="373" y2="378"/>
<line fill="#000000" stroke="#000000" stroke-width="1" x1="649" x2="649" y1="383" y2="388"/>
<line fill="#000000" stroke="#000000" stroke-width="1" x1="649" x2="649" y1="393" y2="398"/>
<line fill="#000000" stroke="#000000" stroke-width="1" x1="649" x2="649" y1="403" y2="408"/>
<line fill="#000000" stroke="#000000" stroke-width="1" x1="649" x2="649" y1="413" y2="418"/>
<line fill="#000000" stroke="#000000" stroke-width="1" x1="649" x2="649" y1="423" y2="428"/>
<line fill="#000000" stroke="#000000" stroke-width="1" x1="649" x2="649" y1="433" y2="438"/>
<line fill="#000000" stroke="#000000" stroke-width="1" x1="649" x2="649" y1="443" y2="448"/>
<line fill="#000000" stroke="#000000" stroke-width="1" x1="649" x2="649" y1="453" y2="458"/>
<line fill="#000000" stroke="#000000" stroke-width="1" x1="649" x2="649" y1="463" y2="468"/>
<line fill="#000000" stroke="#000000" stroke-width="1" x1="649" x2="649" y1="473" y2="478"/>
<line fill="#000000" stroke="#000000" stroke-width="1" x1="649" x2="649" y1="483" y2="488"/>
<line fill="#000000" stroke="#000000" stroke-width="1" x1="649" x2="649" y1="493" y2="498"/>
<line fill="#000000" stroke="#000000" stroke-width="1" x1="649" x2="649" y1="503" y2="508"/>
<line fill="#000000" stroke="#000000" stroke-width="1" x1="649" x2="649" y1="513" y2="517"/>
<rect fill="#ffffff" height="454" stroke="#ffffff" stroke-width="1" width="20" x="639" y="63"/>
<rect fill="none" height="454" stroke="#000000" stroke-width="1" width="20" x="639" y="63"/>
<rect fill="#ffffff" height="50" stroke="#ffffff" stroke-width="1" width="150" x="574" y="14"/>
<rect fill="none" height="50" stroke="#000000" stroke-width="1" width="150" x="574" y="14"/>
<text font-family="Dialog" font-size="12" x="628" y="27">
:Celery</text>
<line fill="#000000" stroke="#000000" stroke-width="1" x1="1281" x2="1281" y1="63" y2="68"/>
<line fill="#000000" stroke="#000000" stroke-width="1" x1="1281" x2="1281" y1="73" y2="78"/>
<line fill="#000000" stroke="#000000" stroke-width="1" x1="1281" x2="1281" y1="83" y2="88"/>
<line fill="#000000" stroke="#000000" stroke-width="1" x1="1281" x2="1281" y1="93" y2="98"/>
<line fill="#000000" stroke="#000000" stroke-width="1" x1="1281" x2="1281" y1="103" y2="108"/>
<line fill="#000000" stroke="#000000" stroke-width="1" x1="1281" x2="1281" y1="113" y2="118"/>
<line fill="#000000" stroke="#000000" stroke-width="1" x1="1281" x2="1281" y1="123" y2="128"/>
<line fill="#000000" stroke="#000000" stroke-width="1" x1="1281" x2="1281" y1="133" y2="138"/>
<line fill="#000000" stroke="#000000" stroke-width="1" x1="1281" x2="1281" y1="143" y2="148"/>
<line fill="#000000" stroke="#000000" stroke-width="1" x1="1281" x2="1281" y1="153" y2="158"/>
<line fill="#000000" stroke="#000000" stroke-width="1" x1="1281" x2="1281" y1="163" y2="168"/>
<line fill="#000000" stroke="#000000" stroke-width="1" x1="1281" x2="1281" y1="173" y2="178"/>
<line fill="#000000" stroke="#000000" stroke-width="1" x1="1281" x2="1281" y1="183" y2="188"/>
<line fill="#000000" stroke="#000000" stroke-width="1" x1="1281" x2="1281" y1="193" y2="198"/>
<line fill="#000000" stroke="#000000" stroke-width="1" x1="1281" x2="1281" y1="203" y2="208"/>
<line fill="#000000" stroke="#000000" stroke-width="1" x1="1281" x2="1281" y1="213" y2="218"/>
<line fill="#000000" stroke="#000000" stroke-width="1" x1="1281" x2="1281" y1="223" y2="228"/>
<line fill="#000000" stroke="#000000" stroke-width="1" x1="1281" x2="1281" y1="233" y2="238"/>
<line fill="#000000" stroke="#000000" stroke-width="1" x1="1281" x2="1281" y1="243" y2="248"/>
<line fill="#000000" stroke="#000000" stroke-width="1" x1="1281" x2="1281" y1="253" y2="258"/>
<line fill="#000000" stroke="#000000" stroke-width="1" x1="1281" x2="1281" y1="263" y2="268"/>
<line fill="#000000" stroke="#000000" stroke-width="1" x1="1281" x2="1281" y1="273" y2="278"/>
<line fill="#000000" stroke="#000000" stroke-width="1" x1="1281" x2="1281" y1="283" y2="288"/>
<line fill="#000000" stroke="#000000" stroke-width="1" x1="1281" x2="1281" y1="293" y2="298"/>
<line fill="#000000" stroke="#000000" stroke-width="1" x1="1281" x2="1281" y1="303" y2="308"/>
<line fill="#000000" stroke="#000000" stroke-width="1" x1="1281" x2="1281" y1="313" y2="318"/>
<line fill="#000000" stroke="#000000" stroke-width="1" x1="1281" x2="1281" y1="323" y2="328"/>
<line fill="#000000" stroke="#000000" stroke-width="1" x1="1281" x2="1281" y1="333" y2="338"/>
<line fill="#000000" stroke="#000000" stroke-width="1" x1="1281" x2="1281" y1="343" y2="348"/>
<line fill="#000000" stroke="#000000" stroke-width="1" x1="1281" x2="1281" y1="353" y2="358"/>
<line fill="#000000" stroke="#000000" stroke-width="1" x1="1281" x2="1281" y1="363" y2="368"/>
<line fill="#000000" stroke="#000000" stroke-width="1" x1="1281" x2="1281" y1="373" y2="378"/>
<line fill="#000000" stroke="#000000" stroke-width="1" x1="1281" x2="1281" y1="383" y2="388"/>
<line fill="#000000" stroke="#000000" stroke-width="1" x1="1281" x2="1281" y1="393" y2="398"/>
<line fill="#000000" stroke="#000000" stroke-width="1" x1="1281" x2="1281" y1="403" y2="408"/>
<line fill="#000000" stroke="#000000" stroke-width="1" x1="1281" x2="1281" y1="413" y2="418"/>
<line fill="#000000" stroke="#000000" stroke-width="1" x1="1281" x2="1281" y1="423" y2="428"/>
<line fill="#000000" stroke="#000000" stroke-width="1" x1="1281" x2="1281" y1="433" y2="438"/>
<line fill="#000000" stroke="#000000" stroke-width="1" x1="1281" x2="1281" y1="443" y2="448"/>
<line fill="#000000" stroke="#000000" stroke-width="1" x1="1281" x2="1281" y1="453" y2="458"/>
<line fill="#000000" stroke="#000000" stroke-width="1" x1="1281" x2="1281" y1="463" y2="468"/>
<line fill="#000000" stroke="#000000" stroke-width="1" x1="1281" x2="1281" y1="473" y2="478"/>
<line fill="#000000" stroke="#000000" stroke-width="1" x1="1281" x2="1281" y1="483" y2="488"/>
<line fill="#000000" stroke="#000000" stroke-width="1" x1="1281" x2="1281" y1="493" y2="498"/>
<line fill="#000000" stroke="#000000" stroke-width="1" x1="1281" x2="1281" y1="503" y2="508"/>
<line fill="#000000" stroke="#000000" stroke-width="1" x1="1281" x2="1281" y1="513" y2="517"/>
<rect fill="#ffffff" height="454" stroke="#ffffff" stroke-width="1" width="20" x="1271" y="63"/>
<rect fill="none" height="454" stroke="#000000" stroke-width="1" width="20" x="1271" y="63"/>
<rect fill="#ffffff" height="50" stroke="#ffffff" stroke-width="1" width="150" x="1206" y="14"/>
<rect fill="none" height="50" stroke="#000000" stroke-width="1" width="150" x="1206" y="14"/>
<text font-family="Dialog" font-size="12" x="1241" y="27">
:ScoreCache</text>
<line fill="#000000" stroke="#000000" stroke-width="1" x1="915" x2="915" y1="214" y2="219"/>
<line fill="#000000" stroke="#000000" stroke-width="1" x1="915" x2="915" y1="224" y2="229"/>
<line fill="#000000" stroke="#000000" stroke-width="1" x1="915" x2="915" y1="234" y2="239"/>
<line fill="#000000" stroke="#000000" stroke-width="1" x1="915" x2="915" y1="244" y2="249"/>
<line fill="#000000" stroke="#000000" stroke-width="1" x1="915" x2="915" y1="254" y2="259"/>
<line fill="#000000" stroke="#000000" stroke-width="1" x1="915" x2="915" y1="264" y2="269"/>
<line fill="#000000" stroke="#000000" stroke-width="1" x1="915" x2="915" y1="274" y2="279"/>
<line fill="#000000" stroke="#000000" stroke-width="1" x1="915" x2="915" y1="284" y2="289"/>
<line fill="#000000" stroke="#000000" stroke-width="1" x1="915" x2="915" y1="294" y2="299"/>
<line fill="#000000" stroke="#000000" stroke-width="1" x1="915" x2="915" y1="304" y2="309"/>
<line fill="#000000" stroke="#000000" stroke-width="1" x1="915" x2="915" y1="314" y2="319"/>
<line fill="#000000" stroke="#000000" stroke-width="1" x1="915" x2="915" y1="324" y2="329"/>
<line fill="#000000" stroke="#000000" stroke-width="1" x1="915" x2="915" y1="334" y2="339"/>
<line fill="#000000" stroke="#000000" stroke-width="1" x1="915" x2="915" y1="344" y2="349"/>
<line fill="#000000" stroke="#000000" stroke-width="1" x1="915" x2="915" y1="354" y2="359"/>
<line fill="#000000" stroke="#000000" stroke-width="1" x1="915" x2="915" y1="364" y2="369"/>
<line fill="#000000" stroke="#000000" stroke-width="1" x1="915" x2="915" y1="374" y2="379"/>
<line fill="#000000" stroke="#000000" stroke-width="1" x1="915" x2="915" y1="384" y2="389"/>
<line fill="#000000" stroke="#000000" stroke-width="1" x1="915" x2="915" y1="394" y2="399"/>
<line fill="#000000" stroke="#000000" stroke-width="1" x1="915" x2="915" y1="404" y2="409"/>
<line fill="#000000" stroke="#000000" stroke-width="1" x1="915" x2="915" y1="414" y2="419"/>
<line fill="#000000" stroke="#000000" stroke-width="1" x1="915" x2="915" y1="424" y2="429"/>
<line fill="#000000" stroke="#000000" stroke-width="1" x1="915" x2="915" y1="434" y2="439"/>
<line fill="#000000" stroke="#000000" stroke-width="1" x1="915" x2="915" y1="444" y2="449"/>
<line fill="#000000" stroke="#000000" stroke-width="1" x1="915" x2="915" y1="454" y2="459"/>
<line fill="#000000" stroke="#000000" stroke-width="1" x1="915" x2="915" y1="464" y2="469"/>
<line fill="#000000" stroke="#000000" stroke-width="1" x1="915" x2="915" y1="474" y2="479"/>
<line fill="#000000" stroke="#000000" stroke-width="1" x1="915" x2="915" y1="484" y2="489"/>
<line fill="#000000" stroke="#000000" stroke-width="1" x1="915" x2="915" y1="494" y2="499"/>
<line fill="#000000" stroke="#000000" stroke-width="1" x1="915" x2="915" y1="504" y2="509"/>
<line fill="#000000" stroke="#000000" stroke-width="1" x1="915" x2="915" y1="514" y2="517"/>
<rect fill="#ffffff" height="303" stroke="#ffffff" stroke-width="1" width="20" x="905" y="214"/>
<rect fill="none" height="303" stroke="#000000" stroke-width="1" width="20" x="905" y="214"/>
<rect fill="#ffffff" height="50" stroke="#ffffff" stroke-width="1" width="234" x="798" y="165"/>
<rect fill="none" height="50" stroke="#000000" stroke-width="1" width="234" x="798" y="165"/>
<text font-family="Dialog" font-size="12" x="802" y="178">
/worker_rev3_modelA:ScoringWorker</text>
<line fill="#000000" stroke="#000000" stroke-width="1" x1="1099" x2="1099" y1="282" y2="287"/>
<line fill="#000000" stroke="#000000" stroke-width="1" x1="1099" x2="1099" y1="292" y2="297"/>
<line fill="#000000" stroke="#000000" stroke-width="1" x1="1099" x2="1099" y1="302" y2="307"/>
<line fill="#000000" stroke="#000000" stroke-width="1" x1="1099" x2="1099" y1="312" y2="317"/>
<line fill="#000000" stroke="#000000" stroke-width="1" x1="1099" x2="1099" y1="322" y2="327"/>
<line fill="#000000" stroke="#000000" stroke-width="1" x1="1099" x2="1099" y1="332" y2="337"/>
<line fill="#000000" stroke="#000000" stroke-width="1" x1="1099" x2="1099" y1="342" y2="347"/>
<line fill="#000000" stroke="#000000" stroke-width="1" x1="1099" x2="1099" y1="352" y2="357"/>
<line fill="#000000" stroke="#000000" stroke-width="1" x1="1099" x2="1099" y1="362" y2="367"/>
<line fill="#000000" stroke="#000000" stroke-width="1" x1="1099" x2="1099" y1="372" y2="377"/>
<line fill="#000000" stroke="#000000" stroke-width="1" x1="1099" x2="1099" y1="382" y2="387"/>
<line fill="#000000" stroke="#000000" stroke-width="1" x1="1099" x2="1099" y1="392" y2="397"/>
<line fill="#000000" stroke="#000000" stroke-width="1" x1="1099" x2="1099" y1="402" y2="407"/>
<line fill="#000000" stroke="#000000" stroke-width="1" x1="1099" x2="1099" y1="412" y2="417"/>
<line fill="#000000" stroke="#000000" stroke-width="1" x1="1099" x2="1099" y1="422" y2="427"/>
<line fill="#000000" stroke="#000000" stroke-width="1" x1="1099" x2="1099" y1="432" y2="437"/>
<line fill="#000000" stroke="#000000" stroke-width="1" x1="1099" x2="1099" y1="442" y2="447"/>
<line fill="#000000" stroke="#000000" stroke-width="1" x1="1099" x2="1099" y1="452" y2="457"/>
<line fill="#000000" stroke="#000000" stroke-width="1" x1="1099" x2="1099" y1="462" y2="467"/>
<line fill="#000000" stroke="#000000" stroke-width="1" x1="1099" x2="1099" y1="472" y2="477"/>
<line fill="#000000" stroke="#000000" stroke-width="1" x1="1099" x2="1099" y1="482" y2="487"/>
<line fill="#000000" stroke="#000000" stroke-width="1" x1="1099" x2="1099" y1="492" y2="497"/>
<line fill="#000000" stroke="#000000" stroke-width="1" x1="1099" x2="1099" y1="502" y2="507"/>
<line fill="#000000" stroke="#000000" stroke-width="1" x1="1099" x2="1099" y1="512" y2="517"/>
<rect fill="#ffffff" height="235" stroke="#ffffff" stroke-width="1" width="20" x="1089" y="282"/>
<rect fill="none" height="235" stroke="#000000" stroke-width="1" width="20" x="1089" y="282"/>
<rect fill="#ffffff" height="50" stroke="#ffffff" stroke-width="1" width="234" x="982" y="233"/>
<rect fill="none" height="50" stroke="#000000" stroke-width="1" width="234" x="982" y="233"/>
<text font-family="Dialog" font-size="12" x="986" y="246">
/worker_rev3_modelB:ScoringWorker</text>
<polyline fill="none" points="308,131 471,131" stroke="#000000" stroke-width="1"/>
<polygon fill="#000000" points="471,131 459,138 459,124" stroke="#000000" stroke-width="1"/>
<polygon fill="none" points="471,131 459,138 459,124" stroke="#000000" stroke-width="1"/>
<text font-family="Dialog" font-size="12" x="259" y="119">
Precache for Wiki W, revision 3</text>
<polyline fill="none" points="491,171 639,171" stroke="#000000" stroke-width="1"/>
<line fill="#000000" stroke="#000000" stroke-width="1" x1="627" x2="639" y1="178" y2="171"/>
<line fill="#000000" stroke="#000000" stroke-width="1" x1="627" x2="639" y1="164" y2="171"/>
<text font-family="Dialog" font-size="12" x="521" y="166">
Spawn workers</text>
<polyline fill="none" points="659,191 798,191" stroke="#000000" stroke-width="1"/>
<polygon fill="#000000" points="798,191 786,198 786,184" stroke="#000000" stroke-width="1"/>
<polygon fill="none" points="798,191 786,198 786,184" stroke="#000000" stroke-width="1"/>
<text font-family="Dialog" font-size="12" x="694" y="183">
Spawn {3,A}</text>
<polyline fill="none" points="659,259 982,259" stroke="#000000" stroke-width="1"/>
<polygon fill="#000000" points="982,259 970,266 970,252" stroke="#000000" stroke-width="1"/>
<polygon fill="none" points="982,259 970,266 970,252" stroke="#000000" stroke-width="1"/>
<text font-family="Dialog" font-size="12" x="775" y="254">
Spawn {3,B}</text>
<polyline fill="none" points="925,339 1271,339" stroke="#000000" stroke-width="1"/>
<line fill="#000000" stroke="#000000" stroke-width="1" x1="1259" x2="1271" y1="346" y2="339"/>
<line fill="#000000" stroke="#000000" stroke-width="1" x1="1259" x2="1271" y1="332" y2="339"/>
<text font-family="Dialog" font-size="12" x="863" y="328">
Store score for {rev3,modelA}</text>
<polyline fill="none" points="1109,419 1271,419" stroke="#000000" stroke-width="1"/>
<line fill="#000000" stroke="#000000" stroke-width="1" x1="1259" x2="1271" y1="426" y2="419"/>
<line fill="#000000" stroke="#000000" stroke-width="1" x1="1259" x2="1271" y1="412" y2="419"/>
<text font-family="Dialog" font-size="12" x="972" y="407">
Store score for {rev3,modelB}</text>
<line fill="#000000" stroke="#000000" stroke-width="1" x1="89" x2="89" y1="63" y2="68"/>
<line fill="#000000" stroke="#000000" stroke-width="1" x1="89" x2="89" y1="73" y2="78"/>
<line fill="#000000" stroke="#000000" stroke-width="1" x1="89" x2="89" y1="83" y2="88"/>
<line fill="#000000" stroke="#000000" stroke-width="1" x1="89" x2="89" y1="93" y2="98"/>
<line fill="#000000" stroke="#000000" stroke-width="1" x1="89" x2="89" y1="103" y2="108"/>
<line fill="#000000" stroke="#000000" stroke-width="1" x1="89" x2="89" y1="113" y2="118"/>
<line fill="#000000" stroke="#000000" stroke-width="1" x1="89" x2="89" y1="123" y2="128"/>
<line fill="#000000" stroke="#000000" stroke-width="1" x1="89" x2="89" y1="133" y2="138"/>
<line fill="#000000" stroke="#000000" stroke-width="1" x1="89" x2="89" y1="143" y2="148"/>
<line fill="#000000" stroke="#000000" stroke-width="1" x1="89" x2="89" y1="153" y2="158"/>
<line fill="#000000" stroke="#000000" stroke-width="1" x1="89" x2="89" y1="163" y2="168"/>
<line fill="#000000" stroke="#000000" stroke-width="1" x1="89" x2="89" y1="173" y2="178"/>
<line fill="#000000" stroke="#000000" stroke-width="1" x1="89" x2="89" y1="183" y2="188"/>
<line fill="#000000" stroke="#000000" stroke-width="1" x1="89" x2="89" y1="193" y2="198"/>
<line fill="#000000" stroke="#000000" stroke-width="1" x1="89" x2="89" y1="203" y2="208"/>
<line fill="#000000" stroke="#000000" stroke-width="1" x1="89" x2="89" y1="213" y2="218"/>
<line fill="#000000" stroke="#000000" stroke-width="1" x1="89" x2="89" y1="223" y2="228"/>
<line fill="#000000" stroke="#000000" stroke-width="1" x1="89" x2="89" y1="233" y2="238"/>
<line fill="#000000" stroke="#000000" stroke-width="1" x1="89" x2="89" y1="243" y2="248"/>
<line fill="#000000" stroke="#000000" stroke-width="1" x1="89" x2="89" y1="253" y2="258"/>
<line fill="#000000" stroke="#000000" stroke-width="1" x1="89" x2="89" y1="263" y2="268"/>
<line fill="#000000" stroke="#000000" stroke-width="1" x1="89" x2="89" y1="273" y2="278"/>
<line fill="#000000" stroke="#000000" stroke-width="1" x1="89" x2="89" y1="283" y2="288"/>
<line fill="#000000" stroke="#000000" stroke-width="1" x1="89" x2="89" y1="293" y2="298"/>
<line fill="#000000" stroke="#000000" stroke-width="1" x1="89" x2="89" y1="303" y2="308"/>
<line fill="#000000" stroke="#000000" stroke-width="1" x1="89" x2="89" y1="313" y2="318"/>
<line fill="#000000" stroke="#000000" stroke-width="1" x1="89" x2="89" y1="323" y2="328"/>
<line fill="#000000" stroke="#000000" stroke-width="1" x1="89" x2="89" y1="333" y2="338"/>
<line fill="#000000" stroke="#000000" stroke-width="1" x1="89" x2="89" y1="343" y2="348"/>
<line fill="#000000" stroke="#000000" stroke-width="1" x1="89" x2="89" y1="353" y2="358"/>
<line fill="#000000" stroke="#000000" stroke-width="1" x1="89" x2="89" y1="363" y2="368"/>
<line fill="#000000" stroke="#000000" stroke-width="1" x1="89" x2="89" y1="373" y2="378"/>
<line fill="#000000" stroke="#000000" stroke-width="1" x1="89" x2="89" y1="383" y2="388"/>
<line fill="#000000" stroke="#000000" stroke-width="1" x1="89" x2="89" y1="393" y2="398"/>
<line fill="#000000" stroke="#000000" stroke-width="1" x1="89" x2="89" y1="403" y2="408"/>
<line fill="#000000" stroke="#000000" stroke-width="1" x1="89" x2="89" y1="413" y2="418"/>
<line fill="#000000" stroke="#000000" stroke-width="1" x1="89" x2="89" y1="423" y2="428"/>
<line fill="#000000" stroke="#000000" stroke-width="1" x1="89" x2="89" y1="433" y2="438"/>
<line fill="#000000" stroke="#000000" stroke-width="1" x1="89" x2="89" y1="443" y2="448"/>
<line fill="#000000" stroke="#000000" stroke-width="1" x1="89" x2="89" y1="453" y2="458"/>
<line fill="#000000" stroke="#000000" stroke-width="1" x1="89" x2="89" y1="463" y2="468"/>
<line fill="#000000" stroke="#000000" stroke-width="1" x1="89" x2="89" y1="473" y2="478"/>
<line fill="#000000" stroke="#000000" stroke-width="1" x1="89" x2="89" y1="483" y2="488"/>
<line fill="#000000" stroke="#000000" stroke-width="1" x1="89" x2="89" y1="493" y2="498"/>
<line fill="#000000" stroke="#000000" stroke-width="1" x1="89" x2="89" y1="503" y2="508"/>
<line fill="#000000" stroke="#000000" stroke-width="1" x1="89" x2="89" y1="513" y2="517"/>
<rect fill="#ffffff" height="454" stroke="#ffffff" stroke-width="1" width="20" x="79" y="63"/>
<rect fill="none" height="454" stroke="#000000" stroke-width="1" width="20" x="79" y="63"/>
<rect fill="#ffffff" height="50" stroke="#ffffff" stroke-width="1" width="150" x="14" y="14"/>
<rect fill="none" height="50" stroke="#000000" stroke-width="1" width="150" x="14" y="14"/>
<text font-family="Dialog" font-size="12" x="56" y="27">
:MediaWiki</text>
<polyline fill="none" points="99,86 288,86" stroke="#000000" stroke-width="1"/>
<line fill="#000000" stroke="#000000" stroke-width="1" x1="276" x2="288" y1="93" y2="86"/>
<line fill="#000000" stroke="#000000" stroke-width="1" x1="276" x2="288" y1="79" y2="86"/>
<text font-family="Dialog" font-size="12" x="113" y="81">
RevisionCreated {Wiki W, revision 3}</text>
<line fill="#000000" stroke="#000000" stroke-width="1" x1="905" x2="900" y1="359" y2="359"/>
<line fill="#000000" stroke="#000000" stroke-width="1" x1="895" x2="890" y1="359" y2="359"/>
<line fill="#000000" stroke="#000000" stroke-width="1" x1="885" x2="880" y1="359" y2="359"/>
<line fill="#000000" stroke="#000000" stroke-width="1" x1="875" x2="870" y1="359" y2="359"/>
<line fill="#000000" stroke="#000000" stroke-width="1" x1="865" x2="860" y1="359" y2="359"/>
<line fill="#000000" stroke="#000000" stroke-width="1" x1="855" x2="850" y1="359" y2="359"/>
<line fill="#000000" stroke="#000000" stroke-width="1" x1="845" x2="840" y1="359" y2="359"/>
<line fill="#000000" stroke="#000000" stroke-width="1" x1="835" x2="830" y1="359" y2="359"/>
<line fill="#000000" stroke="#000000" stroke-width="1" x1="825" x2="820" y1="359" y2="359"/>
<line fill="#000000" stroke="#000000" stroke-width="1" x1="815" x2="810" y1="359" y2="359"/>
<line fill="#000000" stroke="#000000" stroke-width="1" x1="805" x2="800" y1="359" y2="359"/>
<line fill="#000000" stroke="#000000" stroke-width="1" x1="795" x2="790" y1="359" y2="359"/>
<line fill="#000000" stroke="#000000" stroke-width="1" x1="785" x2="780" y1="359" y2="359"/>
<line fill="#000000" stroke="#000000" stroke-width="1" x1="775" x2="770" y1="359" y2="359"/>
<line fill="#000000" stroke="#000000" stroke-width="1" x1="765" x2="760" y1="359" y2="359"/>
<line fill="#000000" stroke="#000000" stroke-width="1" x1="755" x2="750" y1="359" y2="359"/>
<line fill="#000000" stroke="#000000" stroke-width="1" x1="745" x2="740" y1="359" y2="359"/>
<line fill="#000000" stroke="#000000" stroke-width="1" x1="735" x2="730" y1="359" y2="359"/>
<line fill="#000000" stroke="#000000" stroke-width="1" x1="725" x2="720" y1="359" y2="359"/>
<line fill="#000000" stroke="#000000" stroke-width="1" x1="715" x2="710" y1="359" y2="359"/>
<line fill="#000000" stroke="#000000" stroke-width="1" x1="705" x2="700" y1="359" y2="359"/>
<line fill="#000000" stroke="#000000" stroke-width="1" x1="695" x2="690" y1="359" y2="359"/>
<line fill="#000000" stroke="#000000" stroke-width="1" x1="685" x2="680" y1="359" y2="359"/>
<line fill="#000000" stroke="#000000" stroke-width="1" x1="675" x2="670" y1="359" y2="359"/>
<line fill="#000000" stroke="#000000" stroke-width="1" x1="665" x2="660" y1="359" y2="359"/>
<line fill="#000000" stroke="#000000" stroke-width="1" x1="655" x2="650" y1="359" y2="359"/>
<line fill="#000000" stroke="#000000" stroke-width="1" x1="645" x2="640" y1="359" y2="359"/>
<line fill="#000000" stroke="#000000" stroke-width="1" x1="635" x2="630" y1="359" y2="359"/>
<line fill="#000000" stroke="#000000" stroke-width="1" x1="625" x2="620" y1="359" y2="359"/>
<line fill="#000000" stroke="#000000" stroke-width="1" x1="615" x2="610" y1="359" y2="359"/>
<line fill="#000000" stroke="#000000" stroke-width="1" x1="605" x2="600" y1="359" y2="359"/>
<line fill="#000000" stroke="#000000" stroke-width="1" x1="595" x2="590" y1="359" y2="359"/>
<line fill="#000000" stroke="#000000" stroke-width="1" x1="585" x2="580" y1="359" y2="359"/>
<line fill="#000000" stroke="#000000" stroke-width="1" x1="575" x2="570" y1="359" y2="359"/>
<line fill="#000000" stroke="#000000" stroke-width="1" x1="565" x2="560" y1="359" y2="359"/>
<line fill="#000000" stroke="#000000" stroke-width="1" x1="555" x2="550" y1="359" y2="359"/>
<line fill="#000000" stroke="#000000" stroke-width="1" x1="545" x2="540" y1="359" y2="359"/>
<line fill="#000000" stroke="#000000" stroke-width="1" x1="535" x2="530" y1="359" y2="359"/>
<line fill="#000000" stroke="#000000" stroke-width="1" x1="525" x2="520" y1="359" y2="359"/>
<line fill="#000000" stroke="#000000" stroke-width="1" x1="515" x2="510" y1="359" y2="359"/>
<line fill="#000000" stroke="#000000" stroke-width="1" x1="505" x2="500" y1="359" y2="359"/>
<line fill="#000000" stroke="#000000" stroke-width="1" x1="495" x2="490" y1="359" y2="359"/>
<line fill="#000000" stroke="#000000" stroke-width="1" x1="485" x2="480" y1="359" y2="359"/>
<line fill="#000000" stroke="#000000" stroke-width="1" x1="475" x2="470" y1="359" y2="359"/>
<line fill="#000000" stroke="#000000" stroke-width="1" x1="465" x2="460" y1="359" y2="359"/>
<line fill="#000000" stroke="#000000" stroke-width="1" x1="455" x2="450" y1="359" y2="359"/>
<line fill="#000000" stroke="#000000" stroke-width="1" x1="445" x2="440" y1="359" y2="359"/>
<line fill="#000000" stroke="#000000" stroke-width="1" x1="435" x2="430" y1="359" y2="359"/>
<line fill="#000000" stroke="#000000" stroke-width="1" x1="425" x2="420" y1="359" y2="359"/>
<line fill="#000000" stroke="#000000" stroke-width="1" x1="415" x2="410" y1="359" y2="359"/>
<line fill="#000000" stroke="#000000" stroke-width="1" x1="405" x2="400" y1="359" y2="359"/>
<line fill="#000000" stroke="#000000" stroke-width="1" x1="395" x2="390" y1="359" y2="359"/>
<line fill="#000000" stroke="#000000" stroke-width="1" x1="385" x2="380" y1="359" y2="359"/>
<line fill="#000000" stroke="#000000" stroke-width="1" x1="375" x2="370" y1="359" y2="359"/>
<line fill="#000000" stroke="#000000" stroke-width="1" x1="365" x2="360" y1="359" y2="359"/>
<line fill="#000000" stroke="#000000" stroke-width="1" x1="355" x2="350" y1="359" y2="359"/>
<line fill="#000000" stroke="#000000" stroke-width="1" x1="345" x2="340" y1="359" y2="359"/>
<line fill="#000000" stroke="#000000" stroke-width="1" x1="335" x2="330" y1="359" y2="359"/>
<line fill="#000000" stroke="#000000" stroke-width="1" x1="325" x2="320" y1="359" y2="359"/>
<line fill="#000000" stroke="#000000" stroke-width="1" x1="315" x2="310" y1="359" y2="359"/>
<line fill="#000000" stroke="#000000" stroke-width="1" x1="305" x2="300" y1="359" y2="359"/>
<line fill="#000000" stroke="#000000" stroke-width="1" x1="295" x2="290" y1="359" y2="359"/>
<line fill="#000000" stroke="#000000" stroke-width="1" x1="285" x2="280" y1="359" y2="359"/>
<line fill="#000000" stroke="#000000" stroke-width="1" x1="275" x2="270" y1="359" y2="359"/>
<line fill="#000000" stroke="#000000" stroke-width="1" x1="265" x2="260" y1="359" y2="359"/>
<line fill="#000000" stroke="#000000" stroke-width="1" x1="255" x2="250" y1="359" y2="359"/>
<line fill="#000000" stroke="#000000" stroke-width="1" x1="245" x2="240" y1="359" y2="359"/>
<line fill="#000000" stroke="#000000" stroke-width="1" x1="235" x2="230" y1="359" y2="359"/>
<line fill="#000000" stroke="#000000" stroke-width="1" x1="225" x2="220" y1="359" y2="359"/>
<line fill="#000000" stroke="#000000" stroke-width="1" x1="215" x2="210" y1="359" y2="359"/>
<line fill="#000000" stroke="#000000" stroke-width="1" x1="205" x2="200" y1="359" y2="359"/>
<line fill="#000000" stroke="#000000" stroke-width="1" x1="195" x2="190" y1="359" y2="359"/>
<line fill="#000000" stroke="#000000" stroke-width="1" x1="185" x2="180" y1="359" y2="359"/>
<line fill="#000000" stroke="#000000" stroke-width="1" x1="175" x2="170" y1="359" y2="359"/>
<line fill="#000000" stroke="#000000" stroke-width="1" x1="165" x2="160" y1="359" y2="359"/>
<line fill="#000000" stroke="#000000" stroke-width="1" x1="155" x2="150" y1="359" y2="359"/>
<line fill="#000000" stroke="#000000" stroke-width="1" x1="145" x2="140" y1="359" y2="359"/>
<line fill="#000000" stroke="#000000" stroke-width="1" x1="135" x2="130" y1="359" y2="359"/>
<line fill="#000000" stroke="#000000" stroke-width="1" x1="125" x2="120" y1="359" y2="359"/>
<line fill="#000000" stroke="#000000" stroke-width="1" x1="115" x2="110" y1="359" y2="359"/>
<line fill="#000000" stroke="#000000" stroke-width="1" x1="105" x2="100" y1="359" y2="359"/>
<line fill="#000000" stroke="#000000" stroke-width="1" x1="111" x2="99" y1="352" y2="359"/>
<line fill="#000000" stroke="#000000" stroke-width="1" x1="111" x2="99" y1="366" y2="359"/>
<text font-family="Dialog" font-size="12" x="738" y="350">
Store scores in MariaDB</text>
<line fill="#000000" stroke="#000000" stroke-width="1" x1="1089" x2="1084" y1="446" y2="446"/>
<line fill="#000000" stroke="#000000" stroke-width="1" x1="1079" x2="1074" y1="446" y2="446"/>
<line fill="#000000" stroke="#000000" stroke-width="1" x1="1069" x2="1064" y1="446" y2="446"/>
<line fill="#000000" stroke="#000000" stroke-width="1" x1="1059" x2="1054" y1="446" y2="446"/>
<line fill="#000000" stroke="#000000" stroke-width="1" x1="1049" x2="1044" y1="446" y2="446"/>
<line fill="#000000" stroke="#000000" stroke-width="1" x1="1039" x2="1034" y1="446" y2="446"/>
<line fill="#000000" stroke="#000000" stroke-width="1" x1="1029" x2="1024" y1="446" y2="446"/>
<line fill="#000000" stroke="#000000" stroke-width="1" x1="1019" x2="1014" y1="446" y2="446"/>
<line fill="#000000" stroke="#000000" stroke-width="1" x1="1009" x2="1004" y1="446" y2="446"/>
<line fill="#000000" stroke="#000000" stroke-width="1" x1="999" x2="994" y1="446" y2="446"/>
<line fill="#000000" stroke="#000000" stroke-width="1" x1="989" x2="984" y1="446" y2="446"/>
<line fill="#000000" stroke="#000000" stroke-width="1" x1="979" x2="974" y1="446" y2="446"/>
<line fill="#000000" stroke="#000000" stroke-width="1" x1="969" x2="964" y1="446" y2="446"/>
<line fill="#000000" stroke="#000000" stroke-width="1" x1="959" x2="954" y1="446" y2="446"/>
<line fill="#000000" stroke="#000000" stroke-width="1" x1="949" x2="944" y1="446" y2="446"/>
<line fill="#000000" stroke="#000000" stroke-width="1" x1="939" x2="934" y1="446" y2="446"/>
<line fill="#000000" stroke="#000000" stroke-width="1" x1="929" x2="924" y1="446" y2="446"/>
<line fill="#000000" stroke="#000000" stroke-width="1" x1="919" x2="914" y1="446" y2="446"/>
<line fill="#000000" stroke="#000000" stroke-width="1" x1="909" x2="904" y1="446" y2="446"/>
<line fill="#000000" stroke="#000000" stroke-width="1" x1="899" x2="894" y1="446" y2="446"/>
<line fill="#000000" stroke="#000000" stroke-width="1" x1="889" x2="884" y1="446" y2="446"/>
<line fill="#000000" stroke="#000000" stroke-width="1" x1="879" x2="874" y1="446" y2="446"/>
<line fill="#000000" stroke="#000000" stroke-width="1" x1="869" x2="864" y1="446" y2="446"/>
<line fill="#000000" stroke="#000000" stroke-width="1" x1="859" x2="854" y1="446" y2="446"/>
<line fill="#000000" stroke="#000000" stroke-width="1" x1="849" x2="844" y1="446" y2="446"/>
<line fill="#000000" stroke="#000000" stroke-width="1" x1="839" x2="834" y1="446" y2="446"/>
<line fill="#000000" stroke="#000000" stroke-width="1" x1="829" x2="824" y1="446" y2="446"/>
<line fill="#000000" stroke="#000000" stroke-width="1" x1="819" x2="814" y1="446" y2="446"/>
<line fill="#000000" stroke="#000000" stroke-width="1" x1="809" x2="804" y1="446" y2="446"/>
<line fill="#000000" stroke="#000000" stroke-width="1" x1="799" x2="794" y1="446" y2="446"/>
<line fill="#000000" stroke="#000000" stroke-width="1" x1="789" x2="784" y1="446" y2="446"/>
<line fill="#000000" stroke="#000000" stroke-width="1" x1="779" x2="774" y1="446" y2="446"/>
<line fill="#000000" stroke="#000000" stroke-width="1" x1="769" x2="764" y1="446" y2="446"/>
<line fill="#000000" stroke="#000000" stroke-width="1" x1="759" x2="754" y1="446" y2="446"/>
<line fill="#000000" stroke="#000000" stroke-width="1" x1="749" x2="744" y1="446" y2="446"/>
<line fill="#000000" stroke="#000000" stroke-width="1" x1="739" x2="734" y1="446" y2="446"/>
<line fill="#000000" stroke="#000000" stroke-width="1" x1="729" x2="724" y1="446" y2="446"/>
<line fill="#000000" stroke="#000000" stroke-width="1" x1="719" x2="714" y1="446" y2="446"/>
<line fill="#000000" stroke="#000000" stroke-width="1" x1="709" x2="704" y1="446" y2="446"/>
<line fill="#000000" stroke="#000000" stroke-width="1" x1="699" x2="694" y1="446" y2="446"/>
<line fill="#000000" stroke="#000000" stroke-width="1" x1="689" x2="684" y1="446" y2="446"/>
<line fill="#000000" stroke="#000000" stroke-width="1" x1="679" x2="674" y1="446" y2="446"/>
<line fill="#000000" stroke="#000000" stroke-width="1" x1="669" x2="664" y1="446" y2="446"/>
<line fill="#000000" stroke="#000000" stroke-width="1" x1="659" x2="654" y1="446" y2="446"/>
<line fill="#000000" stroke="#000000" stroke-width="1" x1="649" x2="644" y1="446" y2="446"/>
<line fill="#000000" stroke="#000000" stroke-width="1" x1="639" x2="634" y1="446" y2="446"/>
<line fill="#000000" stroke="#000000" stroke-width="1" x1="629" x2="624" y1="446" y2="446"/>
<line fill="#000000" stroke="#000000" stroke-width="1" x1="619" x2="614" y1="446" y2="446"/>
<line fill="#000000" stroke="#000000" stroke-width="1" x1="609" x2="604" y1="446" y2="446"/>
<line fill="#000000" stroke="#000000" stroke-width="1" x1="599" x2="594" y1="446" y2="446"/>
<line fill="#000000" stroke="#000000" stroke-width="1" x1="589" x2="584" y1="446" y2="446"/>
<line fill="#000000" stroke="#000000" stroke-width="1" x1="579" x2="574" y1="446" y2="446"/>
<line fill="#000000" stroke="#000000" stroke-width="1" x1="569" x2="564" y1="446" y2="446"/>
<line fill="#000000" stroke="#000000" stroke-width="1" x1="559" x2="554" y1="446" y2="446"/>
<line fill="#000000" stroke="#000000" stroke-width="1" x1="549" x2="544" y1="446" y2="446"/>
<line fill="#000000" stroke="#000000" stroke-width="1" x1="539" x2="534" y1="446" y2="446"/>
<line fill="#000000" stroke="#000000" stroke-width="1" x1="529" x2="524" y1="446" y2="446"/>
<line fill="#000000" stroke="#000000" stroke-width="1" x1="519" x2="514" y1="446" y2="446"/>
<line fill="#000000" stroke="#000000" stroke-width="1" x1="509" x2="504" y1="446" y2="446"/>
<line fill="#000000" stroke="#000000" stroke-width="1" x1="499" x2="494" y1="446" y2="446"/>
<line fill="#000000" stroke="#000000" stroke-width="1" x1="489" x2="484" y1="446" y2="446"/>
<line fill="#000000" stroke="#000000" stroke-width="1" x1="479" x2="474" y1="446" y2="446"/>
<line fill="#000000" stroke="#000000" stroke-width="1" x1="469" x2="464" y1="446" y2="446"/>
<line fill="#000000" stroke="#000000" stroke-width="1" x1="459" x2="454" y1="446" y2="446"/>
<line fill="#000000" stroke="#000000" stroke-width="1" x1="449" x2="444" y1="446" y2="446"/>
<line fill="#000000" stroke="#000000" stroke-width="1" x1="439" x2="434" y1="446" y2="446"/>
<line fill="#000000" stroke="#000000" stroke-width="1" x1="429" x2="424" y1="446" y2="446"/>
<line fill="#000000" stroke="#000000" stroke-width="1" x1="419" x2="414" y1="446" y2="446"/>
<line fill="#000000" stroke="#000000" stroke-width="1" x1="409" x2="404" y1="446" y2="446"/>
<line fill="#000000" stroke="#000000" stroke-width="1" x1="399" x2="394" y1="446" y2="446"/>
<line fill="#000000" stroke="#000000" stroke-width="1" x1="389" x2="384" y1="446" y2="446"/>
<line fill="#000000" stroke="#000000" stroke-width="1" x1="379" x2="374" y1="446" y2="446"/>
<line fill="#000000" stroke="#000000" stroke-width="1" x1="369" x2="364" y1="446" y2="446"/>
<line fill="#000000" stroke="#000000" stroke-width="1" x1="359" x2="354" y1="446" y2="446"/>
<line fill="#000000" stroke="#000000" stroke-width="1" x1="349" x2="344" y1="446" y2="446"/>
<line fill="#000000" stroke="#000000" stroke-width="1" x1="339" x2="334" y1="446" y2="446"/>
<line fill="#000000" stroke="#000000" stroke-width="1" x1="329" x2="324" y1="446" y2="446"/>
<line fill="#000000" stroke="#000000" stroke-width="1" x1="319" x2="314" y1="446" y2="446"/>
<line fill="#000000" stroke="#000000" stroke-width="1" x1="309" x2="304" y1="446" y2="446"/>
<line fill="#000000" stroke="#000000" stroke-width="1" x1="299" x2="294" y1="446" y2="446"/>
<line fill="#000000" stroke="#000000" stroke-width="1" x1="289" x2="284" y1="446" y2="446"/>
<line fill="#000000" stroke="#000000" stroke-width="1" x1="279" x2="274" y1="446" y2="446"/>
<line fill="#000000" stroke="#000000" stroke-width="1" x1="269" x2="264" y1="446" y2="446"/>
<line fill="#000000" stroke="#000000" stroke-width="1" x1="259" x2="254" y1="446" y2="446"/>
<line fill="#000000" stroke="#000000" stroke-width="1" x1="249" x2="244" y1="446" y2="446"/>
<line fill="#000000" stroke="#000000" stroke-width="1" x1="239" x2="234" y1="446" y2="446"/>
<line fill="#000000" stroke="#000000" stroke-width="1" x1="229" x2="224" y1="446" y2="446"/>
<line fill="#000000" stroke="#000000" stroke-width="1" x1="219" x2="214" y1="446" y2="446"/>
<line fill="#000000" stroke="#000000" stroke-width="1" x1="209" x2="204" y1="446" y2="446"/>
<line fill="#000000" stroke="#000000" stroke-width="1" x1="199" x2="194" y1="446" y2="446"/>
<line fill="#000000" stroke="#000000" stroke-width="1" x1="189" x2="184" y1="446" y2="446"/>
<line fill="#000000" stroke="#000000" stroke-width="1" x1="179" x2="174" y1="446" y2="446"/>
<line fill="#000000" stroke="#000000" stroke-width="1" x1="169" x2="164" y1="446" y2="446"/>
<line fill="#000000" stroke="#000000" stroke-width="1" x1="159" x2="154" y1="446" y2="446"/>
<line fill="#000000" stroke="#000000" stroke-width="1" x1="149" x2="144" y1="446" y2="446"/>
<line fill="#000000" stroke="#000000" stroke-width="1" x1="139" x2="134" y1="446" y2="446"/>
<line fill="#000000" stroke="#000000" stroke-width="1" x1="129" x2="124" y1="446" y2="446"/>
<line fill="#000000" stroke="#000000" stroke-width="1" x1="119" x2="114" y1="446" y2="446"/>
<line fill="#000000" stroke="#000000" stroke-width="1" x1="109" x2="104" y1="446" y2="446"/>
<line fill="#000000" stroke="#000000" stroke-width="1" x1="111" x2="99" y1="439" y2="446"/>
<line fill="#000000" stroke="#000000" stroke-width="1" x1="111" x2="99" y1="453" y2="446"/>
<text font-family="Dialog" font-size="12" x="950" y="437">
Store scores in MariaDB</text>
</svg>
