<?xml version="1.0" encoding="utf-8" ?>
<!DOCTYPE svg PUBLIC "-//W3C//DTD SVG 1.1//EN" "http://www.w3.org/Graphics/SVG/1.1/DTD/svg11.dtd">
<svg height="800" version="1.1" width="1458" xmlns="http://www.w3.org/2000/svg">
<rect fill="#ffffff" height="312" stroke="#ffffff" stroke-width="1" width="112" x="46" y="14"/>
<rect fill="none" height="312" stroke="#000000" stroke-width="1" width="112" x="46" y="14"/>
<text font-family="Dialog" font-size="12" x="82" y="194">
Editor</text>
<ellipse cx="100" cy="143" fill="#000000" rx="8.0" ry="7.5" stroke="#000000" stroke-width="1"/>
<ellipse cx="100" cy="143" fill="#ffffff" rx="7.0" ry="6.5" stroke="#ffffff" stroke-width="1"/>
<line fill="#000000" stroke="#000000" stroke-width="1" x1="100" x2="100" y1="151" y2="166"/>
<line fill="#000000" stroke="#000000" stroke-width="1" x1="90" x2="110" y1="156" y2="156"/>
<line fill="#000000" stroke="#000000" stroke-width="1" x1="100" x2="95" y1="166" y2="181"/>
<line fill="#000000" stroke="#000000" stroke-width="1" x1="100" x2="105" y1="166" y2="181"/>
<text font-family="Dialog" font-size="12" x="82" y="90">
API User</text>
<ellipse cx="108" cy="39" fill="#000000" rx="8.0" ry="7.5" stroke="#000000" stroke-width="1"/>
<ellipse cx="108" cy="39" fill="#ffffff" rx="7.0" ry="6.5" stroke="#ffffff" stroke-width="1"/>
<line fill="#000000" stroke="#000000" stroke-width="1" x1="108" x2="108" y1="47" y2="62"/>
<line fill="#000000" stroke="#000000" stroke-width="1" x1="98" x2="118" y1="52" y2="52"/>
<line fill="#000000" stroke="#000000" stroke-width="1" x1="108" x2="103" y1="62" y2="77"/>
<line fill="#000000" stroke="#000000" stroke-width="1" x1="108" x2="113" y1="62" y2="77"/>
<ellipse cx="427" cy="55" fill="#000000" rx="117.0" ry="33.0" stroke="#000000" stroke-width="1"/>
<ellipse cx="427" cy="55" fill="#ffffff" rx="116.0" ry="32.0" stroke="#ffffff" stroke-width="1"/>
<text font-family="Dialog" font-size="12" x="322" y="56">
Get revision damaging probability</text>
<text font-family="Dialog" font-size="12" x="642" y="194">
ORES AI</text>
<ellipse cx="666" cy="143" fill="#000000" rx="8.0" ry="7.5" stroke="#000000" stroke-width="1"/>
<ellipse cx="666" cy="143" fill="#c0c0c0" rx="7.0" ry="6.5" stroke="#c0c0c0" stroke-width="1"/>
<line fill="#000000" stroke="#000000" stroke-width="1" x1="666" x2="666" y1="151" y2="166"/>
<line fill="#000000" stroke="#000000" stroke-width="1" x1="656" x2="676" y1="156" y2="156"/>
<line fill="#000000" stroke="#000000" stroke-width="1" x1="666" x2="661" y1="166" y2="181"/>
<line fill="#000000" stroke="#000000" stroke-width="1" x1="666" x2="671" y1="166" y2="181"/>
<ellipse cx="434" cy="212" fill="#000000" rx="140.0" ry="38.0" stroke="#000000" stroke-width="1"/>
<ellipse cx="434" cy="212" fill="#ffffff" rx="139.0" ry="37.0" stroke="#ffffff" stroke-width="1"/>
<text font-family="Dialog" font-size="12" x="305" y="213">
Get wp10-esque article quality prediction</text>
<ellipse cx="222" cy="692" fill="#000000" rx="64.0" ry="22.0" stroke="#000000" stroke-width="1"/>
<ellipse cx="222" cy="692" fill="#ffffff" rx="63.0" ry="21.0" stroke="#ffffff" stroke-width="1"/>
<text font-family="Dialog" font-size="12" x="172" y="693">
Hand key labels</text>
<text font-family="Dialog" font-size="12" x="229" y="442">
Researcher</text>
<ellipse cx="265" cy="391" fill="#000000" rx="8.0" ry="7.5" stroke="#000000" stroke-width="1"/>
<ellipse cx="265" cy="391" fill="#ffffff" rx="7.0" ry="6.5" stroke="#ffffff" stroke-width="1"/>
<line fill="#000000" stroke="#000000" stroke-width="1" x1="265" x2="265" y1="399" y2="414"/>
<line fill="#000000" stroke="#000000" stroke-width="1" x1="255" x2="275" y1="404" y2="404"/>
<line fill="#000000" stroke="#000000" stroke-width="1" x1="265" x2="260" y1="414" y2="429"/>
<line fill="#000000" stroke="#000000" stroke-width="1" x1="265" x2="270" y1="414" y2="429"/>
<ellipse cx="632" cy="559" fill="#000000" rx="154.0" ry="41.0" stroke="#000000" stroke-width="1"/>
<ellipse cx="632" cy="559" fill="#ffffff" rx="153.0" ry="40.0" stroke="#ffffff" stroke-width="1"/>
<text font-family="Dialog" font-size="12" x="489" y="560">
Choose training and cross-validation samples</text>
<ellipse cx="672" cy="416" fill="#000000" rx="162.0" ry="42.0" stroke="#000000" stroke-width="1"/>
<ellipse cx="672" cy="416" fill="#ffffff" rx="161.0" ry="41.0" stroke="#ffffff" stroke-width="1"/>
<text font-family="Dialog" font-size="12" x="521" y="417">
Design ML model, features, output classification</text>
<ellipse cx="958" cy="301" fill="#000000" rx="104.0" ry="31.0" stroke="#000000" stroke-width="1"/>
<ellipse cx="958" cy="301" fill="#ffffff" rx="103.0" ry="30.0" stroke="#ffffff" stroke-width="1"/>
<text font-family="Dialog" font-size="12" x="876" y="302">
Measure revision features</text>
<ellipse cx="633" cy="666" fill="#000000" rx="51.0" ry="20.0" stroke="#000000" stroke-width="1"/>
<ellipse cx="633" cy="666" fill="#ffffff" rx="50.0" ry="19.0" stroke="#ffffff" stroke-width="1"/>
<text font-family="Dialog" font-size="12" x="596" y="667">
Train model</text>
<polyline fill="none" points="118,52 310,53" stroke="#000000" stroke-width="1"/>
<text font-family="Dialog" font-size="12" x="129" y="47">
1</text>
<text font-family="Dialog" font-size="12" x="292" y="48">
1</text>
<ellipse cx="900" cy="113" fill="#000000" rx="86.0" ry="27.0" stroke="#000000" stroke-width="1"/>
<ellipse cx="900" cy="113" fill="#ffffff" rx="85.0" ry="26.0" stroke="#ffffff" stroke-width="1"/>
<text font-family="Dialog" font-size="12" x="827" y="114">
Run models on revision</text>
<ellipse cx="667" cy="326" fill="#000000" rx="109.0" ry="32.0" stroke="#000000" stroke-width="1"/>
<ellipse cx="667" cy="326" fill="#ffffff" rx="108.0" ry="31.0" stroke="#ffffff" stroke-width="1"/>
<text font-family="Dialog" font-size="12" x="570" y="327">
Access raw model and storage</text>
<polyline fill="none" points="572,341 274,391" stroke="#333399" stroke-width="1"/>
<text font-family="Dialog" font-size="12" x="692" y="144">
1</text>
<text font-family="Dialog" font-size="12" x="286" y="380">
1</text>
<text font-family="Dialog" font-size="12" x="18" y="626">
Labeler</text>
<ellipse cx="41" cy="575" fill="#000000" rx="8.0" ry="7.5" stroke="#000000" stroke-width="1"/>
<ellipse cx="41" cy="575" fill="#ffffff" rx="7.0" ry="6.5" stroke="#ffffff" stroke-width="1"/>
<line fill="#000000" stroke="#000000" stroke-width="1" x1="41" x2="41" y1="583" y2="598"/>
<line fill="#000000" stroke="#000000" stroke-width="1" x1="31" x2="51" y1="588" y2="588"/>
<line fill="#000000" stroke="#000000" stroke-width="1" x1="41" x2="36" y1="598" y2="613"/>
<line fill="#000000" stroke="#000000" stroke-width="1" x1="41" x2="46" y1="598" y2="613"/>
<polyline fill="none" points="46,636 175,677" stroke="#000000" stroke-width="1"/>
<text font-family="Dialog" font-size="12" x="64" y="633">
1</text>
<text font-family="Dialog" font-size="12" x="157" y="662">
1</text>
<ellipse cx="925" cy="210" fill="#000000" rx="55.0" ry="20.0" stroke="#000000" stroke-width="1"/>
<ellipse cx="925" cy="210" fill="#ffffff" rx="54.0" ry="19.0" stroke="#ffffff" stroke-width="1"/>
<text font-family="Dialog" font-size="12" x="885" y="211">
Store scores</text>
<ellipse cx="570" cy="736" fill="#000000" rx="84.0" ry="26.0" stroke="#000000" stroke-width="1"/>
<ellipse cx="570" cy="736" fill="#ffffff" rx="83.0" ry="25.0" stroke="#ffffff" stroke-width="1"/>
<text font-family="Dialog" font-size="12" x="500" y="737">
Evlauate model health</text>
<polyline fill="none" points="543,711 270,452" stroke="#333399" stroke-width="1"/>
<text font-family="Dialog" font-size="12" x="603" y="654">
1</text>
<text font-family="Dialog" font-size="12" x="296" y="461">
1</text>
<text font-family="Dialog" font-size="12" x="87" y="298">
Bot</text>
<ellipse cx="98" cy="247" fill="#000000" rx="8.0" ry="7.5" stroke="#000000" stroke-width="1"/>
<ellipse cx="98" cy="247" fill="#ffffff" rx="7.0" ry="6.5" stroke="#ffffff" stroke-width="1"/>
<line fill="#000000" stroke="#000000" stroke-width="1" x1="98" x2="98" y1="255" y2="270"/>
<line fill="#000000" stroke="#000000" stroke-width="1" x1="88" x2="108" y1="260" y2="260"/>
<line fill="#000000" stroke="#000000" stroke-width="1" x1="98" x2="93" y1="270" y2="285"/>
<line fill="#000000" stroke="#000000" stroke-width="1" x1="98" x2="103" y1="270" y2="285"/>
<line fill="#000000" stroke="#000000" stroke-width="1" x1="46" x2="158" y1="118" y2="118"/>
<polyline fill="none" points="113,100 348,182" stroke="#000000" stroke-width="1"/>
<text font-family="Dialog" font-size="12" x="131" y="97">
1</text>
<text font-family="Dialog" font-size="12" x="330" y="167">
1</text>
<polyline fill="none" points="275,404 511,411" stroke="#000000" stroke-width="1"/>
<text font-family="Dialog" font-size="12" x="286" y="399">
1</text>
<text font-family="Dialog" font-size="12" x="493" y="406">
1</text>
<ellipse cx="423" cy="134" fill="#000000" rx="113.0" ry="32.0" stroke="#000000" stroke-width="1"/>
<ellipse cx="423" cy="134" fill="#ffffff" rx="112.0" ry="31.0" stroke="#ffffff" stroke-width="1"/>
<text font-family="Dialog" font-size="12" x="323" y="135">
Get revision reverted probability</text>
<polyline fill="none" points="113,100 317,122" stroke="#000000" stroke-width="1"/>
<text font-family="Dialog" font-size="12" x="126" y="95">
1</text>
<text font-family="Dialog" font-size="12" x="298" y="114">
1</text>
<ellipse cx="948" cy="530" fill="#000000" rx="54.0" ry="20.0" stroke="#000000" stroke-width="1"/>
<ellipse cx="948" cy="530" fill="#ffffff" rx="53.0" ry="19.0" stroke="#ffffff" stroke-width="1"/>
<text font-family="Dialog" font-size="12" x="909" y="531">
View metrics</text>
<text font-family="Dialog" font-size="12" x="1154" y="522">
Operations engineer</text>
<ellipse cx="1218" cy="471" fill="#000000" rx="8.0" ry="7.5" stroke="#000000" stroke-width="1"/>
<ellipse cx="1218" cy="471" fill="#ffffff" rx="7.0" ry="6.5" stroke="#ffffff" stroke-width="1"/>
<line fill="#000000" stroke="#000000" stroke-width="1" x1="1218" x2="1218" y1="479" y2="494"/>
<line fill="#000000" stroke="#000000" stroke-width="1" x1="1208" x2="1228" y1="484" y2="484"/>
<line fill="#000000" stroke="#000000" stroke-width="1" x1="1218" x2="1213" y1="494" y2="509"/>
<line fill="#000000" stroke="#000000" stroke-width="1" x1="1218" x2="1223" y1="494" y2="509"/>
<ellipse cx="1015" cy="710" fill="#000000" rx="73.0" ry="24.0" stroke="#000000" stroke-width="1"/>
<ellipse cx="1015" cy="710" fill="#ffffff" rx="72.0" ry="23.0" stroke="#ffffff" stroke-width="1"/>
<text font-family="Dialog" font-size="12" x="956" y="711">
Scale worker pools</text>
<polyline fill="none" points="1040,687 1213,532" stroke="#000000" stroke-width="1"/>
<text font-family="Dialog" font-size="12" x="1040" y="665">
1</text>
<text font-family="Dialog" font-size="12" x="1179" y="540">
1</text>
<polyline fill="none" points="1001,530 1213,532" stroke="#333399" stroke-width="1"/>
<text font-family="Dialog" font-size="12" x="1012" y="525">
1</text>
<text font-family="Dialog" font-size="12" x="1195" y="527">
1</text>
<ellipse cx="1036" cy="768" fill="#000000" rx="46.0" ry="18.0" stroke="#000000" stroke-width="1"/>
<ellipse cx="1036" cy="768" fill="#ffffff" rx="45.0" ry="17.0" stroke="#ffffff" stroke-width="1"/>
<text font-family="Dialog" font-size="12" x="1006" y="769">
Configure</text>
<polyline fill="none" points="1048,750 1213,532" stroke="#333399" stroke-width="1"/>
<text font-family="Dialog" font-size="12" x="1044" y="724">
1</text>
<text font-family="Dialog" font-size="12" x="1181" y="543">
1</text>
<ellipse cx="216" cy="520" fill="#000000" rx="82.0" ry="26.0" stroke="#000000" stroke-width="1"/>
<ellipse cx="216" cy="520" fill="#ffffff" rx="81.0" ry="25.0" stroke="#ffffff" stroke-width="1"/>
<text font-family="Dialog" font-size="12" x="148" y="521">
Choose to participate</text>
<polyline fill="none" points="159,538 50,575" stroke="#333399" stroke-width="1"/>
<ellipse cx="234" cy="579" fill="#000000" rx="60.0" ry="21.0" stroke="#000000" stroke-width="1"/>
<ellipse cx="234" cy="579" fill="#ffffff" rx="59.0" ry="20.0" stroke="#ffffff" stroke-width="1"/>
<text font-family="Dialog" font-size="12" x="189" y="580">
Claim work set</text>
<ellipse cx="231" cy="635" fill="#000000" rx="57.0" ry="21.0" stroke="#000000" stroke-width="1"/>
<ellipse cx="231" cy="635" fill="#ffffff" rx="56.0" ry="20.0" stroke="#ffffff" stroke-width="1"/>
<text font-family="Dialog" font-size="12" x="188" y="636">
View work set</text>
<polyline fill="none" points="174,635 46,636" stroke="#333399" stroke-width="1"/>
<polyline fill="none" points="174,581 51,588" stroke="#333399" stroke-width="1"/>
<text font-family="Dialog" font-size="12" x="1106" y="202">
Campaigner</text>
<ellipse cx="1143" cy="151" fill="#000000" rx="8.0" ry="7.5" stroke="#000000" stroke-width="1"/>
<ellipse cx="1143" cy="151" fill="#ffffff" rx="7.0" ry="6.5" stroke="#ffffff" stroke-width="1"/>
<line fill="#000000" stroke="#000000" stroke-width="1" x1="1143" x2="1143" y1="159" y2="174"/>
<line fill="#000000" stroke="#000000" stroke-width="1" x1="1133" x2="1153" y1="164" y2="164"/>
<line fill="#000000" stroke="#000000" stroke-width="1" x1="1143" x2="1138" y1="174" y2="189"/>
<line fill="#000000" stroke="#000000" stroke-width="1" x1="1143" x2="1148" y1="174" y2="189"/>
<ellipse cx="1345" cy="156" fill="#000000" rx="99.0" ry="30.0" stroke="#000000" stroke-width="1"/>
<ellipse cx="1345" cy="156" fill="#ffffff" rx="98.0" ry="29.0" stroke="#ffffff" stroke-width="1"/>
<text font-family="Dialog" font-size="12" x="1259" y="157">
Organize labeling campaign</text>
<polyline fill="none" points="1246,160 1153,164" stroke="#333399" stroke-width="1"/>
<polyline fill="none" points="896,524 270,452" stroke="#333399" stroke-width="1"/>
<polyline fill="none" points="528,528 270,452" stroke="#333399" stroke-width="1"/>
<polyline fill="none" points="270,452 604,649" stroke="#333399" stroke-width="1"/>
<ellipse cx="927" cy="595" fill="#000000" rx="57.0" ry="21.0" stroke="#000000" stroke-width="1"/>
<ellipse cx="927" cy="595" fill="#ffffff" rx="56.0" ry="20.0" stroke="#ffffff" stroke-width="1"/>
<text font-family="Dialog" font-size="12" x="885" y="596">
Deploy model</text>
<polyline fill="none" points="975,584 1213,532" stroke="#333399" stroke-width="1"/>
<ellipse cx="980" cy="650" fill="#000000" rx="54.0" ry="20.0" stroke="#000000" stroke-width="1"/>
<ellipse cx="980" cy="650" fill="#ffffff" rx="53.0" ry="19.0" stroke="#ffffff" stroke-width="1"/>
<text font-family="Dialog" font-size="12" x="941" y="651">
Deploy code</text>
<polyline fill="none" points="1011,633 1213,532" stroke="#333399" stroke-width="1"/>
<ellipse cx="728" cy="75" fill="#000000" rx="58.0" ry="21.0" stroke="#000000" stroke-width="1"/>
<ellipse cx="728" cy="75" fill="#ffffff" rx="57.0" ry="20.0" stroke="#ffffff" stroke-width="1"/>
<text font-family="Dialog" font-size="12" x="684" y="76">
Fetch revision</text>
<polyline fill="none" points="709,94 671,136" stroke="#333399" stroke-width="1"/>
<polyline fill="none" points="820,123 675,143" stroke="#333399" stroke-width="1"/>
<polyline fill="none" points="870,208 671,204" stroke="#333399" stroke-width="1"/>
<polyline fill="none" points="889,277 671,204" stroke="#333399" stroke-width="1"/>
<ellipse cx="908" cy="386" fill="#000000" rx="54.0" ry="20.0" stroke="#000000" stroke-width="1"/>
<ellipse cx="908" cy="386" fill="#ffffff" rx="53.0" ry="19.0" stroke="#ffffff" stroke-width="1"/>
<text font-family="Dialog" font-size="12" x="869" y="387">
Emit metrics</text>
<polyline fill="none" points="884,367 671,204" stroke="#333399" stroke-width="1"/>
<polyline fill="none" points="665,294 661,204" stroke="#333399" stroke-width="1"/>
</svg>
